<?xml version="1.0" encoding="utf-8"?>
<!-- Generator: Adobe Illustrator 16.0.0, SVG Export Plug-In . SVG Version: 6.00 Build 0)  -->
<!DOCTYPE svg PUBLIC "-//W3C//DTD SVG 1.1//EN" "http://www.w3.org/Graphics/SVG/1.1/DTD/svg11.dtd">
<svg version="1.1" id="Layer_1" xmlns="http://www.w3.org/2000/svg" xmlns:xlink="http://www.w3.org/1999/xlink" x="0px" y="0px"
	 width="50px" height="50px" viewBox="0 0 50 50" enable-background="new 0 0 50 50" xml:space="preserve">
<circle fill="#F39A22" cx="25" cy="25" r="25"/>
<path fill="#FFFFFF" d="M22.619,26.627l-0.707-10.566c-0.133-2.059-0.197-3.537-0.197-4.434c0-1.221,0.32-2.173,0.958-2.856
	c0.64-0.686,1.482-1.028,2.525-1.028c1.266,0,2.112,0.438,2.538,1.313c0.426,0.876,0.64,2.137,0.64,3.783
	c0,0.971-0.052,1.958-0.154,2.956l-0.948,10.876c-0.103,1.296-0.323,2.287-0.663,2.979c-0.338,0.69-0.897,1.035-1.676,1.035
	c-0.795,0-1.346-0.333-1.654-1.004C22.972,29.014,22.75,27.994,22.619,26.627z M25.068,41.143c-0.897,0-1.681-0.289-2.349-0.871
	c-0.669-0.58-1.003-1.392-1.003-2.437c0-0.913,0.32-1.688,0.958-2.329c0.64-0.639,1.423-0.959,2.35-0.959
	c0.928,0,1.717,0.32,2.371,0.959c0.654,0.641,0.982,1.417,0.982,2.329c0,1.028-0.33,1.837-0.993,2.426
	C26.723,40.849,25.951,41.143,25.068,41.143z"/>
</svg>
