<?xml version="1.0" encoding="utf-8"?>
<!-- Generator: Adobe Illustrator 26.0.3, SVG Export Plug-In . SVG Version: 6.00 Build 0)  -->
<svg version="1.1" id="Livello_1" xmlns="http://www.w3.org/2000/svg" xmlns:xlink="http://www.w3.org/1999/xlink" x="0px" y="0px"
	 width="36px" height="36px" viewBox="0 0 36 36" style="enable-background:new 0 0 36 36;" xml:space="preserve">
<style type="text/css">
	.st0{fill:#FFFFFF;}
	.st1{fill:#901480;}
	.st2{fill:#004AD0;}
	.st3{fill:#0090FF;}
	.st4{fill:#00AA00;}
	.st5{fill:#FFE500;}
	.st6{fill:#FF7D00;}
	.st7{fill:#FF0000;}
</style>
<g>
	<g>
		<path class="st0" d="M17.7,12.3c-3.3,0-5.9,2.7-5.9,5.9c0,3.3,2.7,5.9,5.9,5.9c3.3,0,5.9-2.7,5.9-5.9c0,0,0,0,0,0
			C23.6,15,20.9,12.3,17.7,12.3"/>
		<path class="st1" d="M5.2,7.8C5.1,7.9,5.1,8,5.2,8.1c0,0,0,0,0,0l6.3,3.6l0,0c0.1,0,0.2,0,0.2,0c0,0,0,0,0.1-0.1c0,0,0,0,0,0
			C13,9.5,15.1,8,17.6,7.6c0,0,0,0,0,0c0,0,0,0,0.1,0c0.1,0,0.1-0.1,0.1-0.2v0l-1.3-7.1v0c0,0,0-0.1,0-0.1C16.3,0,16.2,0,16.2,0l0,0
			l0,0C11.5,0.8,7.5,3.7,5.2,7.8"/>
		<path class="st2" d="M1.6,21.6c0,0.1,0.1,0.1,0.2,0.1c0,0,0.1,0,0.1,0l6.8-2.6l0,0c0.1,0,0.1-0.1,0.1-0.2c0,0,0,0,0-0.1
			c0,0,0,0,0,0c-0.9-2.3-0.8-4.9,0.4-7c0,0,0,0,0,0c0,0,0,0,0-0.1c0-0.1,0-0.2-0.1-0.2l0,0L2.7,8l0,0c0,0-0.1,0-0.1,0
			C2.5,8,2.4,8,2.4,8.1c0,0,0,0,0,0l0,0C0.1,12.3-0.2,17.2,1.6,21.6"/>
		<path class="st3" d="M10.2,32.9c0.1,0,0.1,0,0.2-0.1c0,0,0-0.1,0-0.1l2.2-6.9l0,0c0-0.1,0-0.2-0.1-0.2c0,0,0,0-0.1,0c0,0,0,0,0,0
			c-2.4-0.7-4.3-2.4-5.2-4.7c0,0,0,0,0,0c0,0,0,0,0-0.1c-0.1-0.1-0.1-0.1-0.2,0l0,0l-6.7,2.9l0,0c0,0-0.1,0-0.1,0.1
			c0,0.1-0.1,0.1,0,0.2c0,0,0,0,0,0l0,0C2,28.2,5.7,31.5,10.2,32.9"/>
		<path class="st4" d="M24.3,33.2c0.1,0,0.1-0.1,0.1-0.2c0,0,0-0.1,0-0.1l-4-6l0,0c0-0.1-0.1-0.1-0.2-0.1c0,0,0,0-0.1,0c0,0,0,0,0,0
			c-2,1.4-4.6,1.8-6.9,1.1c0,0,0,0,0,0c0,0-0.1,0-0.1,0c-0.1,0-0.1,0.1-0.2,0.1l0,0l-1.9,7l0,0c0,0.1,0,0.2,0.1,0.2l0,0l0,0
			C15.6,36.7,20.4,35.9,24.3,33.2"/>
		<path class="st5" d="M33.5,22.4c0-0.1-0.1-0.2-0.2-0.2l-7.2-0.6h0c-0.1,0-0.2,0-0.2,0.1c0,0,0,0,0,0.1c0,0,0,0,0,0
			c-0.2,2.5-1.4,4.7-3.4,6.1c0,0,0,0,0,0c0,0,0,0-0.1,0.1c0,0.1,0,0.2,0,0.2l0,0l4.3,5.9l0,0c0,0,0,0,0.1,0.1c0.1,0,0.1,0,0.2,0l0,0
			l0,0C30.8,31.4,33.2,27.1,33.5,22.4"/>
		<path class="st6" d="M30.8,8.5c-0.1,0-0.1-0.1-0.2,0c0,0-0.1,0-0.1,0.1l-5,5.3l0,0c-0.1,0.1-0.1,0.1,0,0.2c0,0,0,0,0,0.1
			c0,0,0,0,0,0c1.8,1.7,2.8,4.1,2.6,6.5c0,0,0,0,0,0c0,0,0,0.1,0,0.1c0,0.1,0.1,0.1,0.2,0.1h0l7.2,0.4h0c0,0,0.1,0,0.1,0
			c0.1,0,0.1-0.1,0.1-0.2c0,0,0,0,0,0l0,0C36.1,16.3,34.3,11.7,30.8,8.5"/>
		<path class="st7" d="M18.1,2C18,2,17.9,2.1,18,2.2c0,0,0,0,0,0L19,9.4l0,0c0,0.1,0.1,0.2,0.2,0.2c0,0,0,0,0,0
			c2.4-0.4,4.9,0.3,6.7,2c0,0,0,0,0,0c0,0,0,0,0.1,0c0.1,0,0.2,0,0.2-0.1l0,0L31.1,6l0,0c0,0,0,0,0-0.1c0-0.1,0-0.1-0.1-0.2l0,0l0,0
			C27.5,2.6,22.8,1.2,18.1,2"/>
		<path d="M17.7,12.2c-3.3,0-6,2.7-6,6c0,3.3,2.7,6,6,6c3.3,0,6-2.7,6-6C23.7,14.9,21,12.2,17.7,12.2 M22,21.6
			c0.1-0.2,0.1-0.5,0.2-0.7c-0.1,0.1-0.3,0.2-0.4,0.3c-0.4,0.3-0.8,0.5-1.3,0.6l-1.2-1.3l0,0l0.8,1.5c-0.2,0.4-0.6,0.8-1,1.1
			c-0.1,0.1-0.3,0.2-0.4,0.3c0.2,0,0.5,0.1,0.8,0.1c-1.2,0.4-2.5,0.4-3.7,0c0.3,0,0.5,0,0.8-0.1c-0.1-0.1-0.3-0.2-0.4-0.3
			c-0.4-0.3-0.7-0.6-1-1.1l0.8-1.5l0,0l-1.2,1.3c-0.5-0.1-0.9-0.3-1.3-0.6c-0.1-0.1-0.3-0.2-0.4-0.3c0,0.2,0.1,0.5,0.2,0.8
			c-0.8-1-1.2-2.2-1.2-3.4c0-0.1,0-0.1,0-0.2c0.1,0.3,0.2,0.5,0.3,0.7c0-0.2,0.1-0.3,0.1-0.5c0.1-0.5,0.4-0.9,0.7-1.2l1.7,0.3l0,0
			l-1.6-0.7c0-0.5,0-1,0.2-1.4c0.1-0.2,0.1-0.3,0.2-0.5c-0.2,0.1-0.5,0.2-0.7,0.4c0.7-1.1,1.8-1.9,3.1-2.3c-0.2,0.1-0.4,0.4-0.6,0.6
			c0.2,0,0.3,0,0.5,0c0.5,0,1,0.1,1.4,0.3l0.2,1.7h0l0.2-1.7c0.4-0.2,0.9-0.3,1.4-0.3c0.2,0,0.3,0,0.5,0c-0.2-0.2-0.4-0.4-0.6-0.6
			c1.3,0.4,2.4,1.2,3.1,2.2c-0.2-0.2-0.5-0.3-0.7-0.4c0.1,0.2,0.1,0.3,0.2,0.5c0.2,0.5,0.2,0.9,0.2,1.4l-1.5,0.7l0,0L22,17
			c0.3,0.4,0.6,0.8,0.7,1.2c0.1,0.2,0.1,0.3,0.1,0.5c0.1-0.2,0.3-0.5,0.3-0.7c0,0.1,0,0.1,0,0.2C23.2,19.5,22.8,20.7,22,21.6"/>
		<polygon points="15.3,17.4 16.2,20.3 19.2,20.3 20.1,17.4 17.7,15.7 		"/>
	</g>
</g>
</svg>
