<?xml version="1.0" encoding="utf-8"?>
<!-- Generator: Adobe Illustrator 26.0.3, SVG Export Plug-In . SVG Version: 6.00 Build 0)  -->
<svg version="1.1" id="圖層_1" xmlns="http://www.w3.org/2000/svg" xmlns:xlink="http://www.w3.org/1999/xlink" x="0px" y="0px"
	 viewBox="0 0 18 24" style="enable-background:new 0 0 18 24;" xml:space="preserve">
<style type="text/css">
	.st0{fill:#FFFFFF;}
	.st1{fill:#C91723;}
	.st2{fill:#BF8D13;}
	.st3{fill:#040000;}
	.st4{fill:#955624;}
	.st5{fill:#B8711D;}
	.st6{fill:#B28A20;}
	.st7{fill:#E0C9B0;}
	.st8{fill:#BF9710;}
</style>
<g>
	<path class="st0" d="M1.3,11.6h15.4c0,0-2.5,7.6-7.7,11.9C8.7,23.7,2.2,16.6,1.3,11.6"/>
	<path class="st0" d="M9.1,5.9c0,0,1.7-1,3.8-1s4,1.1,4.5,1.9c0,1.2-0.8,4.8-0.8,4.8L9,11.5"/>
	<path class="st1" d="M14.8,11.7v3.9c-0.4,0.8-0.8,1.5-1.2,2.2v-6.1 M12.2,11.7v8.1c-0.4,0.5-0.8,1-1.2,1.5v-9.6 M9.6,13.4v9.3
		c-0.2,0.2-0.4,0.4-0.6,0.6c-0.2-0.1-0.4-0.3-0.6-0.6v-9.3c0.2,0.1,0.4,0.1,0.6,0.1S9.4,13.4,9.6,13.4 M7,11.7v9.6
		c-0.4-0.5-0.8-1-1.2-1.5v-8.1 M4.4,11.6v6.2c-0.4-0.7-0.9-1.5-1.2-2.2v-3.9"/>
	<path class="st2" d="M9.2,6.1v3.5c0.9,0.1,1.6,0.8,1.8,1.8h5.5c0.4-1.4,0.7-3,0.9-4.5C15.2,4.7,11.7,4.5,9.2,6.1 M11,11.7
		c-0.1,1.1-0.8,1.8-1.9,1.8c-1.2,0-1.8-0.8-1.9-1.8H1.7c1.2,3.9,3.3,7.6,6.2,10.6c0.4,0.4,0.8,0.8,1.1,1c0.4-0.3,0.7-0.7,1.1-1
		c2.9-3,5-6.7,6.2-10.6H11z M7.4,11.5c0,0.9,0.7,1.6,1.6,1.6s1.6-0.7,1.6-1.6c0-0.9-0.7-1.6-1.6-1.6C8.1,9.9,7.4,10.6,7.4,11.5
		C7.4,11.5,7.4,11.5,7.4,11.5 M17.9,2.6c0.5,7.8-1.9,13.7-7,19.6c-0.9,1-1.8,1.7-1.8,1.7s-0.9-0.7-1.8-1.7
		C2.1,16.4-0.4,10.3,0.1,2.5c1.2,1,2.6,1.4,4.3,1.4c1.8,0,3.4-0.6,4.6-1.7c1.3,1.1,2.9,1.8,4.6,1.8C15.3,3.9,16.6,3.5,17.9,2.6"/>
	<path class="st2" d="M11,11.3h5.4c0.4-1.4,0.7-2.9,0.8-4.5C16.1,5.7,14.6,5,12.9,5c-1.3,0-2.6,0.4-3.6,1.1v3.4
		C10.2,9.7,10.8,10.4,11,11.3 M16.4,11.4h-5.5l0,0c-0.1-1-0.8-1.6-1.7-1.7h0V6.1l0,0C10.3,5.4,11.5,5,12.9,5c1.7,0,3.3,0.6,4.4,1.8
		l0,0v0C17.1,8.3,16.8,9.9,16.4,11.4L16.4,11.4z M9,9.9c-0.9,0-1.6,0.7-1.6,1.6c0,0.9,0.7,1.6,1.6,1.6s1.6-0.7,1.6-1.6
		C10.6,10.6,9.9,9.9,9,9.9 M9,13.2c-0.9,0-1.6-0.8-1.6-1.7c0-0.9,0.7-1.5,1.6-1.6c0.9,0,1.6,0.7,1.6,1.6S9.9,13.2,9,13.2 M1.8,11.7
		c1.2,4,3.4,7.7,6.2,10.5c0.5,0.5,0.8,0.8,1.1,1c0.2-0.2,0.6-0.5,1.1-1c2.8-2.9,5-6.5,6.2-10.5H11c-0.1,1.1-0.8,1.8-2,1.8
		c-1.3,0-1.9-0.9-2-1.8H1.8z M9,23.3L9,23.3c-0.4-0.3-0.7-0.7-1.1-1c-2.8-2.9-5-6.6-6.2-10.6l0,0h5.4v0c0.1,0.9,0.7,1.8,1.9,1.8
		c1.1,0,1.8-0.6,1.9-1.8v0h5.4l0,0c-1.2,4-3.4,7.7-6.2,10.6C9.7,22.6,9.4,23,9,23.3L9,23.3z M0.1,2.5C-0.4,10,1.8,16,7.2,22.2
		c0.8,1,1.7,1.6,1.8,1.7c0.1-0.1,1-0.7,1.8-1.7c2.7-3.1,4.5-6.1,5.6-9.1c1.2-3.2,1.6-6.6,1.4-10.5l0,0c-1.2,0.9-2.5,1.4-4.2,1.4
		c-1.7,0-3.3-0.6-4.6-1.7C7.8,3.3,6.1,3.9,4.4,3.9C2.7,3.9,1.3,3.4,0.1,2.5 M9,23.9L9,23.9c0,0-1-0.7-1.8-1.7C1.8,16-0.4,10,0.1,2.5
		l0,0l0,0c1.2,0.9,2.5,1.4,4.2,1.4c1.8,0,3.4-0.6,4.6-1.7l0,0l0,0c1.3,1.1,2.9,1.7,4.6,1.7c1.7,0,3.1-0.4,4.2-1.4l0,0l0,0.1
		c0.3,3.9-0.2,7.3-1.4,10.5c-1.1,3-3,6-5.6,9.1C10.3,22.9,9.7,23.4,9,23.9"/>
	<path class="st3" d="M0.2,2.6L0.2,2.6C-0.1,6.4,0.5,10,1.8,13.4c1.2,3.1,3,6.1,5.4,8.7c0.6,0.6,1.1,1.2,1.8,1.6
		c0.2-0.1,1-0.8,1.8-1.6c2.7-3.1,4.5-6,5.6-9.1c1.2-3.2,1.6-6.6,1.4-10.4C16.6,3.6,15.3,4,13.6,4C11.9,4,10.3,3.4,9,2.3
		C7.8,3.4,6.1,4,4.4,4C2.7,4,1.3,3.5,0.2,2.6 M9,24L9,24c0,0-1-0.7-1.9-1.7c-2.4-2.7-4.3-5.6-5.5-8.8C0.4,10.1-0.2,6.4,0.1,2.7
		l0-0.3l0.1,0.1c1.1,0.9,2.5,1.4,4.2,1.4c1.7,0,3.3-0.6,4.6-1.7l0,0l0,0c1.3,1.1,2.9,1.7,4.6,1.7c1.7,0,3-0.4,4.1-1.3l0.2-0.2l0,0.3
		c0.3,3.9-0.2,7.3-1.4,10.5c-1.1,3.1-2.9,6-5.7,9.1C10.3,22.9,9.7,23.5,9,24"/>
	<path class="st3" d="M13.8,7.4C13.8,7.4,13.8,7.4,13.8,7.4c-0.3,0-0.5,0-0.7,0v0.2c0,0,0.1,0.1,0.1,0.1c0.7,0.5,1.4,0.9,1.3,1.9
		c-0.1,1.1-1.2,1.8-2.8,1.1v-0.2c0.4,0.1,0.8,0.2,1.2,0.2v-0.4c-1,0-1.6-0.7-1.6-1.5c0-0.6,0.4-1.2,1.1-1.5C12.1,7,12,6.8,12,6.4
		c-0.1-0.6,1-1.4,1.9-0.5L13.7,6c-0.4-0.4-1.3-0.4-1.5,0.2c-0.1,0.4,0.1,0.7,0.4,0.9c0.1,0,0.1,0,0.2,0V6.6h0.9v0.1h-0.6v0.4
		C13.3,7.2,13.6,7.3,13.8,7.4 M12.5,7.5C12,7.6,11.6,8,11.6,8.6c0,0.9,0.6,1.3,1.3,1.3V7.7C12.8,7.6,12.6,7.5,12.5,7.5 M13.1,9.9
		c0.2,0,0.5-0.1,0.6-0.2l0,0.2c-0.2,0.1-0.4,0.2-0.6,0.2v0.4c0.5-0.1,0.9-0.4,1.1-0.8c0.1-0.4,0.2-0.8-0.9-1.7l-0.1-0.1v0.7h0.4v0.1
		h-0.4"/>
	<path class="st0" d="M8.8,9.6V6.1c-2.5-1.6-6-1.4-8.1,0.7c0.2,1.5,0.4,3,0.9,4.5h5.5C7.2,10.4,7.9,9.7,8.8,9.6"/>
	<path class="st1" d="M17.3,6.3L17.3,6.3c-1.2-1.1-2.8-1.7-4.5-1.7C11.5,4.6,10.2,5,9,5.8l0,0l0,0C7.8,5,6.5,4.6,5.1,4.6
		c-1.7,0-3.2,0.6-4.4,1.6l0,0v0C0.6,5.3,0.6,4.4,0.6,3.4l0,0l0,0c1.1,0.7,2.4,1,3.8,1C6,4.4,7.7,3.9,9,2.9l0,0l0,0
		c1.3,1,2.9,1.6,4.6,1.6c1.3,0,2.6-0.3,3.8-1l0,0v0C17.4,4.4,17.4,5.4,17.3,6.3"/>
	<path class="st4" d="M10.7,11.5c0,0.9-0.7,1.6-1.6,1.6c-0.9,0-1.6-0.7-1.6-1.6c0-0.9,0.7-1.6,1.6-1.6C9.9,9.9,10.7,10.6,10.7,11.5"
		/>
	<path class="st5" d="M9.5,11.2c0,0.4-0.3,0.8-0.8,0.8c-0.4,0-0.8-0.3-0.8-0.8c0-0.4,0.3-0.8,0.8-0.8C9.1,10.4,9.5,10.8,9.5,11.2"/>
	<path class="st6" d="M1.3,10.2c0,0,0-1.8,0.1-2.1c0.1-0.3,0.4-0.8,0.4-0.8L1.6,6.8c0,0,0.2-0.4,0.3-0.5c0.3,0.1,0.4,0.4,0.4,0.4
		l0,0.6c0,0,0.1,0.1,0,0.2c0.2,0.2,0.5,0.6,0.6,0.9C3,8.6,3.1,8.8,3.1,8.9h0.1L2.8,6.5c0,0-0.1-0.1-0.1-0.1C2.6,6.3,2.4,5.9,2.9,5.8
		c0.2,0,0.3,0.1,0.3,0.3c0,0.1-0.1,0.3-0.2,0.3c0,0.1-0.1,0,0,0.8C3.1,7.9,3.2,9,3.2,9s0.1,0,0.1,0.1c0,0.1,0.1,0.2-0.1,0.2
		c0.1,0.5,0.2,1.2,0.2,1.2l0.1,0.9l-1.9,0"/>
	<path class="st7" d="M1.9,7.3c0,0,0.2-0.2,0.4-0.1c0,0.2,0,0.3,0,0.3C2.2,7.5,2.1,7.5,2.1,7.5C2,7.6,2,7.6,2,7.6L1.9,7.5"/>
	<path class="st7" d="M2,7.6c0,0,0.1-0.1,0.2,0C2.2,7.7,2.1,7.8,2,7.6"/>
	<path class="st7" d="M1.9,7.6c0,0,0.1,0.1,0.2,0.2c0.1,0,0.1-0.1,0.1-0.1s0,0.2,0,0.2c0,0-0.1,0-0.2,0C2,7.8,1.9,7.7,1.9,7.7"/>
	<path class="st7" d="M2.9,8.8L3,9c0,0,0.3-0.1,0.3,0.1c0,0.2,0,0.3-0.1,0.2c-0.1,0-0.1-0.1-0.2-0.1C3,9.2,2.8,9,2.8,9"/>
	<path class="st7" d="M2,9.1c0,0,0.3,0.3,0.3,0.4c0.1,0.1,0.1,0.2,0.1,0.3s0,0.2-0.1,0.1C2.1,9.7,2.1,9.6,2.1,9.5s0-0.1,0-0.1L2,9.1
		"/>
	<path class="st7" d="M2.1,7L2.1,6.5c0,0,0.2,0.1,0.2,0.3c0,0.2,0,0.4,0,0.4"/>
	<path class="st7" d="M2,7.1L1.9,6.5c0,0-0.2,0.1-0.2,0.3c0.1,0.2,0.1,0.3,0.1,0.3S1.9,7.1,2,7.1"/>
	<path class="st7" d="M2.4,7.7c0,0,0,0.2,0.1,0.3c0.1,0.1,0.2,0.4,0.3,0.6C2.9,8.8,3,8.9,3,8.9S3.1,8.5,2.4,7.7"/>
	<path class="st7" d="M1.7,7.7c0,0-0.1,0.5-0.1,0.9c0,0.4,0.2,0.8,0.4,1c0.2,0.3,0.2,0.3,0.2,0.3l0.2,1.3l-0.1,0.1
		c0,0-0.3-0.1-0.5-0.8S1.4,9.1,1.4,8.7S1.5,8,1.5,8S1.3,8.4,1.4,8.7c0,0.4,0.2,1.6,0.3,1.8c0.1,0.2,0.2,0.5,0.2,0.5l0,0.3l-0.3,0
		c0,0,0-0.4,0.1-0.5c-0.2-0.5-0.4-1-0.4-1.6C1.3,8.7,1.3,8.3,1.7,7.7"/>
	<path class="st7" d="M2.6,9.3c0,0,0.3,0.1,0.3,0.2c0,0.1,0.3,1,0.3,1l0.2,0c0,0,0-0.3-0.1-0.4C3.1,9.9,3.3,9.7,3.1,9.5
		C3,9.4,3.1,9.2,2.6,9.3"/>
	<path class="st7" d="M2.6,9.6c0,0,0.2,0.5,0.2,0.6s0,0.3,0,0.3l-0.2,0.2c0,0-0.1-0.3-0.1-0.5c0-0.2,0.1-0.3,0-0.4
		c-0.1,0-0.1-0.1-0.1-0.1"/>
	<path class="st7" d="M2.4,9.3c0,0,0-0.1,0.1-0.2C2.6,9,2.4,9,2.5,8.9c0.1-0.1,0.1-0.1,0-0.1c0,0,0,0.1,0,0.1c0,0-0.2-0.1-0.2-0.1
		s0.2-0.1,0.2-0.3c0-0.1,0-0.2,0-0.2L2.3,8.4l0,0.1L2.3,8.4L2,8.4l0,0.5C2,8.9,2.1,9,2.1,9c0,0,0,0.2,0,0.2"/>
	<path class="st7" d="M2,8.1l0.2,0c0,0,0-0.1-0.1-0.2c0,0-0.2-0.1-0.2-0.1C1.9,7.8,1.9,8.1,2,8.1"/>
	<path class="st7" d="M2.3,8.1h0.1c0,0-0.1-0.1-0.1-0.2L2.2,7.9"/>
	<path class="st1" d="M3.2,11.4c0,0,0.1-0.5,0.1-0.6c0.1-0.1,0.1-0.3,0.2-0.3s0-1.8,0-1.8l0.3-0.3V6.2l-0.1,0c0,0,0-0.2-0.1-0.2
		c0-0.3,0-0.4,0.3-0.4c0.3,0,1.9,0,2.1,0c0.2,0,0.3,0,0.3,0.4C6,6,6,6.3,6,6.3l-0.1,0l0,2l0.2,0.4v1.7l0.7,0.9L7,11.4"/>
	<path class="st8" d="M3.8,6.1c0,0-0.2-0.4-0.1-0.4C4,5.7,4,5.7,4,5.8C4,6,3.9,6.1,3.8,6.1C3.9,6.1,3.8,6.1,3.8,6.1"/>
	<path class="st8" d="M4.5,6.1L4.4,6c0,0-0.1-0.2,0.1-0.3c0.1,0,0.2,0.1,0.2,0.1C4.7,5.9,4.6,6,4.5,6.1C4.6,6.1,4.5,6.1,4.5,6.1"/>
	<path class="st8" d="M5.2,6.1c0,0,0-0.1-0.1-0.1c0,0-0.1-0.2,0-0.3c0.1-0.1,0.2-0.1,0.3,0c0,0.1,0.1,0.1,0,0.2
		C5.3,6.1,5.3,6.1,5.3,6.1"/>
	<path class="st8" d="M5.8,6.1c0,0,0.1-0.1,0-0.1c-0.1-0.1-0.2-0.3,0-0.3c0.2,0,0.3,0.1,0.2,0.2C6,6,6,6,6,6.1
		C6,6.1,5.8,6.1,5.8,6.1"/>
	<path class="st8" d="M4.1,6.7c0,0-0.1-0.3,0-0.5C4.2,6,4.4,6,4.4,6.2c0,0.2,0.1,0.3,0,0.4C4.3,6.7,4.1,6.7,4.1,6.7"/>
	<path class="st8" d="M4.1,7.1c0,0-0.1-0.3,0.1-0.3c0.1,0,0.2,0,0.3,0.1c0,0.1,0,0.3-0.1,0.3C4.3,7.1,4.2,7.3,4.1,7.1"/>
	<path class="st8" d="M4.1,7.7c0,0-0.1-0.3-0.1-0.3c0.1-0.1,0.1-0.2,0.2-0.1c0.1,0.1,0.1,0.2,0.1,0.2s0,0.1-0.1,0.2
		C4.3,7.6,4.1,7.7,4.1,7.7"/>
	<path class="st8" d="M4.8,6.6c0,0-0.1-0.2,0-0.3c0.1-0.1,0.1-0.1,0-0.1s0-0.3,0.1-0.1C5,6.2,5,6.3,5,6.3c0,0,0.1,0.2,0.1,0.3
		C4.9,6.7,4.8,6.6,4.8,6.6"/>
	<path class="st8" d="M5.4,6.2c0,0,0.1-0.4,0.3,0c-0.1,0.1-0.1,0.1,0,0.2c0,0.1,0,0.2,0,0.3c0,0-0.2,0.1-0.2,0
		C5.5,6.5,5.5,6.3,5.4,6.2"/>
	<path class="st8" d="M5.5,7.1c0,0-0.2-0.3,0-0.3c0.1-0.1,0.3,0.1,0.3,0.1c0,0.1-0.1,0.2-0.1,0.3c0,0.1,0.2,0.2,0.1,0.3
		C5.6,7.6,5.6,7.6,5.5,7.6c-0.1,0-0.1,0-0.1-0.2C5.5,7.3,5.5,7.1,5.5,7.1"/>
	<path class="st8" d="M3.6,9.2C3.5,9.2,3.4,9,3.6,8.9c0.1-0.1,0.4-0.1,0.3,0c0,0.2-0.1,0.3-0.1,0.3c-0.1,0,0,0.1,0,0.2
		c0.1,0.1,0.1,0.3,0,0.4c0,0-0.1,0-0.1,0.1c0,0.1,0.1,0.4,0,0.4c-0.1,0.1-0.2,0.1-0.2-0.1c0-0.1,0.1-0.3,0.1-0.4
		C3.6,9.7,3.5,9.6,3.5,9.5C3.6,9.3,3.6,9.2,3.6,9.2"/>
	<path class="st8" d="M6,9.2c0-0.1-0.2-0.2-0.1-0.3c0.1-0.1,0.2-0.2,0.3,0c0,0.2,0,0.3-0.1,0.4s0.1,0.1,0.1,0.3
		c0,0.2-0.1,0.2-0.1,0.3c0.1,0.1,0.2,0.3,0.1,0.4c-0.1,0.1-0.3,0.1-0.3,0c0-0.2,0-0.3,0.1-0.4c0-0.1,0-0.1,0-0.2
		C5.9,9.5,6,9.2,6,9.2"/>
	<path class="st8" d="M3.6,10.6c0.1,0-0.1-0.2,0.1-0.2c0.2,0,0.4,0.1,0.2,0.2c-0.2,0.1-0.1,0.1-0.1,0.1c0,0.1,0,0.2,0,0.2s0,0,0,0.1
		c0,0.1-0.1,0.1-0.1,0.2c0.1,0.1,0,0.1,0,0.1H3.3c0,0,0.1-0.2,0.1-0.2c0.1,0-0.1-0.2,0-0.2S3.4,10.7,3.6,10.6"/>
	<path class="st8" d="M4.2,10.6c0,0,0-0.2,0.1-0.2c0.2,0,0.2,0,0.1,0.1c-0.1,0.1,0,0.1,0,0.2c0,0.1-0.1,0.2-0.1,0.2
		c0,0,0.1,0,0.1,0.1c0,0.2,0,0.2,0,0.2H4l0.1-0.2c0,0-0.2-0.1-0.1-0.2c0.1-0.1,0.1-0.1,0-0.2C4.1,10.8,4.2,10.6,4.2,10.6"/>
	<path class="st8" d="M4.7,10.8c0.1,0,0.3-0.1,0.3,0C5.1,11,4.9,10.9,5,11c0,0,0.2,0.1,0.1,0.2c0,0-0.1,0.1-0.1,0.1
		c0.1,0,0.1,0.1,0.1,0.1H4.7c0,0,0.1-0.2,0.1-0.2c0,0-0.1-0.2-0.1-0.2S4.7,10.9,4.7,10.8"/>
	<path class="st8" d="M5.3,10.6c0,0-0.1-0.2,0.1-0.2c0.2,0,0.1,0.1,0.1,0.2c0,0,0.1,0.1,0.1,0.1c0,0.1-0.1,0.2-0.1,0.2
		c0,0,0.1,0,0.1,0.1c0,0.1,0,0.2,0,0.2c0,0,0.1,0.1,0.1,0.1s-0.5,0-0.4,0c0,0,0.1-0.2,0.1-0.2s-0.1-0.2,0-0.3c0.1,0-0.1-0.1-0.1-0.1
		L5.3,10.6"/>
	<path class="st8" d="M6,10.6c0,0-0.1-0.2,0.1-0.2c0.2,0.1,0.2,0.2,0.1,0.2c-0.1,0,0.1,0.1,0.1,0.1c0,0-0.1,0.2,0,0.2
		c0,0,0.2,0.1,0.2,0.2c-0.1,0.1,0,0.2,0,0.2l0,0.1H6.1l0-0.2c0,0-0.1-0.1-0.1-0.2C6,10.8,6.1,10.7,6,10.6"/>
	<path class="st6" d="M4.7,7.3c0,0-0.1-0.2-0.1-0.4c0-0.1-0.1-0.2-0.1-0.3c-0.1,0,0.1,0,0.1,0s0.1-0.1,0.1-0.1c0,0,0.1,0,0.1,0
		l0.1,0l0.1,0l0.1,0l0.1,0.1c0,0-0.1,0.1-0.1,0.2s0,0.3,0,0.3C5.1,7.3,5,7.4,5,7.4s0.2,0.1,0.3,0.1c0.1,0,0.1,0,0.2,0.1
		s0.2,0.2,0.2,0.3c0,0.1,0,0.2,0,0.2h0.1c0,0,0-0.2,0.2-0.2c0.2,0,0.4,0,0.4,0.2c0,0.2-0.1,0.4-0.1,0.4c0,0-0.2,0.1-0.3,0.1
		C5.7,8.8,5.7,8.8,5.7,8.7c0-0.1-0.1-0.1-0.1-0.1l0,0.1c0,0,0.2,0.2,0.3,0.3C5.9,9.1,6,9.4,5.9,9.6c0,0.2-0.1,0.5-0.1,0.5l-0.2,0.2
		H5.2c0,0,0,0.2,0,0.3c0,0.1-0.2,0.2-0.3,0.2c0,0-0.3,0.1-0.3-0.1c0-0.2,0-0.3,0-0.4c0-0.1,0.1-0.1-0.2-0.1c-0.3-0.1-0.2,0-0.3,0
		c0,0-0.3-0.1-0.3-0.4c0-0.2,0-0.8,0.1-0.9c0.1-0.1,0.2-0.3,0.2-0.3c0-0.1,0-0.1,0-0.1S4.1,8.7,3.9,8.6C3.8,8.5,3.8,8.6,3.8,8.6
		c-0.1,0-0.3-0.1-0.1-0.3l0-0.1c0,0-0.2-0.1-0.2-0.2c0.1,0.1,0.2,0.1,0.2,0.1s-0.2-2-0.2-1.9c0,0,0.3,1.9,0.3,1.9
		c0,0,0.1-0.1,0.1-0.1s0,0,0.1,0c0,0,0.1-0.1,0.3-0.3C4.3,7.5,4.5,7.4,4.7,7.3"/>
	<path class="st7" d="M4.7,6.9l0,0.4l0,0.1l0,0.1l0.2,0.1L5,7.4V7.2l0.1-0.1l0-0.2C5.1,6.9,4.8,6.8,4.7,6.9"/>
	<path class="st7" d="M4.6,7.3v0.2l0.2,0.1"/>
	<path class="st7" d="M4.5,7.4c0,0.1,0,0.4,0,0.4c0,0,0.4-0.2,0.4-0.2v0.1L4.4,8L4,8.1l0.1,0.1H3.9l0.2,0.2l0,0.2
		c0,0-0.4-0.5-0.4-0.5c0,0,0.2-0.2,0.3-0.3c0.2-0.2,0.3-0.4,0.3-0.4"/>
	<path class="st7" d="M5.2,7.4c0,0-0.2,0.2-0.2,0.2l0.2,0.1l0.1,0c0,0,0.1,0.3,0.2,0.3c0,0,0.1,0,0.2,0.1c0.1,0,0.1-0.1,0.1-0.1
		S5.5,8,5.5,7.9C5.5,7.9,5.3,7.5,5.2,7.4"/>
	<path class="st7" d="M4.6,8.1L4.9,8c0,0-0.1,0.2,0,0.2c0,0,0.1-0.1,0.1-0.1c0,0,0,0.1,0,0.1L4.9,8.3"/>
	<path class="st7" d="M5.1,8.5L5,8.6L4.9,8.4"/>
	<path class="st7" d="M4.9,8.4l0,0.3c0,0-0.4-0.1-0.4-0.1C4.6,8.5,4.6,8.3,4.9,8.4"/>
	<path class="st7" d="M5.4,8.1l0.3,0l0.1,0.2c0,0-0.2,0.2-0.2,0.2c0,0,0.1-0.2,0.1-0.2L5.6,8.2"/>
	<path class="st7" d="M5.6,8.9L5.5,8.7L5.1,9.1C5.1,9.1,5.3,9.1,5.6,8.9"/>
	<path class="st7" d="M4,9c0,0,0.5,0.3,0.7,0.3c0.2,0,0.6-0.1,0.6-0.1c0,0,0.3-0.2,0.4-0.2c0.1,0,0.1,0.2,0.1,0.2L5.7,9.9l-0.7,0.3
		c0,0-0.8-0.2-0.8-0.2s-0.2,0-0.2,0S3.7,8.8,4,9"/>
	<path class="st6" d="M6.4,10.7c0,0-0.3-0.2-0.2-0.5c0.1-0.3,0.1-0.4,0.1-0.5c0-0.1,0-0.2,0.1-0.3c0,0,0.1-0.3,0.1-0.3
		S6.3,9,6.5,8.8c0.1-0.9,0.3-2.6,0.3-2.6c0,0-0.3,0.2-0.3-0.1c-0.1-0.2,0-0.6,0-0.6c0,0,0.4-0.2,0.4,0.2C7,6.2,6.9,7,6.9,7.1
		c0,0-0.2,1.8-0.2,1.8l0.1,0c0,0,0.5-1.1,0.8-1.2C7.5,7.5,7.5,7.1,7.5,7.1s0.1-0.7,0.2-0.8C7.7,6.3,8,6.1,8,6.1l0,0.2l0.1-0.1
		c0,0,0,0.6,0,0.8L8,7.3l0.1,0c0,0,0.2,0.3,0.1,0.4c0.2,0.6,0.3,0.9,0.3,0.9c0,0,0,1.1,0,1.1s-0.7,0.2-1.1,0.9
		c-0.4,0.7-0.3,0.9-0.3,0.9H6.8c0,0-0.2-0.3-0.2-0.4C6.4,10.9,6.4,10.7,6.4,10.7"/>
	<path class="st7" d="M7.7,6.9l0.2-0.6L8,6.7L7.9,7L7.7,6.9z"/>
	<path class="st7" d="M7.5,7.1c0,0,0.3,0.1,0.3,0.1c0,0,0,0.1,0,0.1l0,0.2L7.7,7.5c0,0-0.2-0.1-0.2-0.1c0,0,0-0.1,0-0.1l0-0.1"/>
	<path class="st7" d="M7.9,7.3l0,0.2h0.1L8,7.3H7.9z"/>
	<path class="st7" d="M7.6,7.7l0.3-0.2L8,7.5L7.8,8L7.5,8l0.1-0.2"/>
	<path class="st7" d="M7.4,8.2c0.1,0,0.3,0,0.3,0L7.4,8.7"/>
	<path class="st7" d="M7.3,8.3c0,0,0,0.1,0,0.2c0,0,0,0.2,0,0.2L7.1,8.8L6.8,9L6.7,9.1l-0.2,0l0-0.2l0.3,0"/>
	<path class="st7" d="M8.2,7.8c0,0-0.8,1.2-0.8,1.2l0.3-0.1c0,0,0.5-0.7,0.5-0.7C8.3,8.1,8.2,7.8,8.2,7.8"/>
	<path class="st7" d="M8.3,8.3c0,0-0.8,1.6-0.8,1.6S7.2,9.5,7.2,9.6c0,0-0.2-0.3-0.2-0.3l-0.2,0c0,0,0,0.4,0,0.4
		c0,0-0.3,0.8-0.3,0.8s0.1,0.1,0.2,0c0,0,0.3-0.9,0.3-0.9c0,0,0.1,0.4,0.1,0.4S6.7,11,6.8,11c0,0,0.6-0.6,0.6-0.6
		c0,0,0.5-0.7,0.5-0.7"/>
	<path class="st7" d="M8.2,9.8c0,0,0.4-0.8,0.3-1.2C8.6,9,8.4,9.8,8.4,9.8"/>
	<path class="st3" d="M1.9,7.3l0,0.2L2,7.6l0.1-0.1l0.2,0.1l0-0.1l0,0.2c0,0,0,0.3,0.1,0.3c0,0,0,0,0,0L2.3,7.9L2.2,8l0,0.2h0
		L2.1,7.9l0.2-0.1l0-0.1L2.2,7.8L2,7.8L1.9,7.6l0,0.1L2,8.2l-0.1,0L1.8,7.7V7.6l0,0C1.9,7.6,1.9,7.4,1.9,7.3L1.9,7.3"/>
	<path class="st3" d="M2.3,7.3l0,0.2L2.3,7.3"/>
	<path class="st3" d="M1.9,8.3l0.6-0.1l0.1,0.1l-0.1,0l0,0.3l0.1,0.1h0.2c0,0-0.1,0.1-0.1,0.1c0,0,0.5,0.4,0.5,0.4l0.2,1.3
		c0,0,0,0,0,0c0,0-0.2-0.9-0.2-0.9l0-0.2L2.8,9.1L2.6,9L2.5,9.1l0-0.2L2.4,8.9c0,0-0.1-0.1-0.1-0.1c0,0,0-0.2,0-0.2L2.3,8.4L2.1,8.4
		l0,0.3c0,0,0.1,0.6,0.1,0.5c0,0-0.2-0.2-0.2-0.2s0.1,0.4,0.1,0.4c0,0-0.4-0.7-0.4-0.7c0,0,0-0.3,0-0.3l0.2,0.3c0,0,0.1,0.2,0.1,0.2
		C1.9,9,1.9,8.3,1.9,8.3"/>
	<path class="st3" d="M3,10.2l0.1,0.4c0,0-0.4,0.3-0.4,0.3c0,0-0.2-0.1-0.2-0.1l0.1,0.4l-0.2,0.2h0.4l-0.1-0.2c0,0,0.1-0.1,0.1-0.1
		c0,0,0-0.3,0-0.3S3,10.8,3,10.8s0.2,0.1,0.2,0.1l0,0.2l0.1,0l0.1-0.4c0,0-0.1,0-0.1,0c0,0-0.2,0-0.2,0c0,0,0.1-0.1,0.1-0.1
		C3.2,10.6,3,10.2,3,10.2"/>
	<path class="st3" d="M3.2,11.3L2.9,11L3,11.4l0.1,0c0,0,0.1,0,0.1,0S3.2,11.3,3.2,11.3"/>
	<path class="st3" d="M3.9,6.1L3.8,5.9l0.1-0.1L4,5.9L3.9,6.1z"/>
	<path class="st3" d="M4.4,5.9c0,0,0.1-0.2,0.1-0.2c0,0,0.1,0.2,0.1,0.2L4.5,6.1"/>
	<path class="st3" d="M5.1,5.9l0.1-0.2c0,0,0.1,0.1,0.1,0.2c0,0-0.1,0.2-0.1,0.2L5.1,5.9"/>
	<path class="st3" d="M5.8,5.9c0,0,0-0.1,0-0.1C5.9,5.8,6,5.9,6,6c0,0-0.1,0.2-0.1,0.2"/>
	<path class="st3" d="M5.5,6.2c-0.1,0,0-0.2,0-0.1C5.6,6.1,5.7,6.2,5.5,6.2"/>
	<path class="st3" d="M4.9,6.2C4.9,6.2,4.8,6.2,4.9,6.2C4.9,6.1,5.1,6,4.9,6.2"/>
	<path class="st3" d="M4.2,6.2c0,0-0.2-0.2,0-0.2C4.4,6.1,4.2,6.2,4.2,6.2"/>
	<path class="st3" d="M4.2,6.6c0,0-0.1-0.3,0-0.3C4.3,6.5,4.2,6.6,4.2,6.6"/>
	<path class="st3" d="M4.2,7.1c-0.1,0-0.1-0.2-0.1-0.2s0.1-0.2,0.1-0.2c0,0,0.1,0.2,0.1,0.2"/>
	<path class="st3" d="M4.2,7.6c0,0-0.1-0.3,0-0.3C4.3,7.5,4.2,7.6,4.2,7.6"/>
	<path class="st3" d="M4.8,6.5l0.1-0.2L5,6.5L4.9,6.6L4.8,6.5z"/>
	<path class="st3" d="M5.5,6.6c0,0-0.1-0.3,0-0.3C5.6,6.4,5.7,6.6,5.5,6.6"/>
	<path class="st3" d="M5.4,6.9l0.1-0.2l0.1,0.2L5.5,7.1L5.4,6.9z"/>
	<path class="st3" d="M5.5,7.6c0,0-0.1-0.2,0-0.3C5.7,7.4,5.5,7.6,5.5,7.6"/>
	<path class="st3" d="M4.7,6.9v0.3l0.1,0.1L4.7,7.4H4.6L4.6,7.2L4.7,6.9"/>
	<path class="st3" d="M4.9,7.1c0,0,0-0.1,0-0.1c0,0,0-0.1,0.1-0.1c0.1,0,0.1-0.2,0.1-0.2l0,0.4c0,0-0.1-0.2-0.1-0.1C5.1,7,5,7,5,7
		S4.9,7,4.9,7.1"/>
	<path class="st3" d="M5.1,7.2v0.1L5,7.3"/>
	<path class="st3" d="M3.9,8.2c0,0,0.4-0.1,0.5-0.2c0.2-0.1,0.4-0.3,0.4-0.3L4.4,8.2l-0.2,0l0.2,0.2c0,0-0.3,0.2-0.2,0.2
		c0,0,0-0.2,0-0.2c0,0-0.2-0.1-0.2-0.1s0.1,0.2,0.1,0.2C4.1,8.4,3.9,8.2,3.9,8.2"/>
	<path class="st3" d="M3.8,8.3c0,0,0.3,0.3,0.2,0.4C3.9,8.6,3.8,8.6,3.8,8.6l-0.1,0"/>
	<path class="st3" d="M4.9,7.8c0,0,0.1,0.2,0,0.3C5.1,8.1,5.1,7.9,4.9,7.8"/>
	<path class="st3" d="M5.5,8.3L5.3,8.4c0,0,0.1,0.3,0.1,0.3c0,0,0.1-0.2,0.1-0.2C5.5,8.4,5.5,8.3,5.5,8.3"/>
	<path class="st3" d="M5.9,8.5c0,0-0.2,0.2-0.1,0.3C5.9,8.7,5.9,8.6,5.9,8.5"/>
	<path class="st3" d="M6,8.8L5.9,9C5.9,9,6,9.2,6,9.2C6,9.2,6.2,9,6.2,9C6.2,9,6,8.8,6,8.8"/>
	<path class="st3" d="M6,9.4c0,0,0,0.2,0.1,0.3C6.2,9.6,6,9.4,6,9.4"/>
	<path class="st3" d="M6.1,9.8c0,0,0,0.2-0.1,0.2c0.1,0.1,0.1,0.2,0.1,0.2L6.2,10"/>
	<path class="st3" d="M3.8,8.8c0,0-0.1,0.2-0.2,0.3c0.1,0.2,0.2,0.2,0.2,0.2L3.9,9"/>
	<path class="st3" d="M3.7,9.4c0,0-0.1,0.2,0,0.4C3.8,9.6,3.9,9.5,3.7,9.4"/>
	<path class="st3" d="M4.5,9.1l0.2,0.2H4.5"/>
	<path class="st3" d="M4.8,9.3L4.8,9.3C4.9,9.3,5,9,5,9C5,9.1,4.9,9.2,4.8,9.3L4.7,9"/>
	<path class="st3" d="M3.7,9.8l-0.1,0.3c0,0,0.1,0.3,0.1,0.2c0,0,0.1-0.2,0.1-0.2"/>
	<path class="st3" d="M4.2,10.1c0,0,0.6,0.1,0.6,0.1s0,0.2,0.1,0.3c0,0.1,0,0.3,0,0.3c0,0-0.1,0-0.1,0s0-0.3,0-0.3c0,0,0-0.3,0-0.3"
		/>
	<path class="st3" d="M5,10.2L5.8,10l-0.2,0.1c0,0,0,0.2,0,0.2c0,0-0.2,0-0.2,0S5,10.5,5,10.5c0,0,0.1-0.2,0.1-0.2
		C5.1,10.2,5,10.2,5,10.2"/>
	<path class="st3" d="M3.7,10.6c0,0,0-0.2,0-0.1C3.8,10.5,3.8,10.6,3.7,10.6"/>
	<path class="st3" d="M3.5,10.9C3.5,10.9,3.5,10.9,3.5,10.9c0-0.1,0.1-0.2,0.1-0.2l0.1,0.1L3.5,10.9"/>
	<path class="st3" d="M3.4,11.1C3.4,11.1,3.4,11.1,3.4,11.1c0.2,0,0.3,0,0.3,0C3.7,11.1,3.6,11.1,3.4,11.1"/>
	<path class="st3" d="M3.4,11.4c0,0,0.2-0.1,0.2-0.1l0.1,0.1"/>
	<path class="st3" d="M4.2,10.6l0.1-0.1l0.1,0.1l-0.1,0.1L4.2,10.6z"/>
	<path class="st3" d="M4.3,10.9c0,0-0.1-0.1,0-0.2C4.3,10.8,4.3,10.9,4.3,10.9"/>
	<path class="st3" d="M4.1,11l0.1,0l0.1,0.1c0,0-0.2,0.1-0.2,0.1C4.2,11.1,4.1,11,4.1,11"/>
	<path class="st3" d="M4.1,11.4l0.1-0.1l0.1,0.1"/>
	<path class="st3" d="M4.7,11c0,0,0.1,0,0.2,0c0.1,0,0.2,0.1,0,0.1C4.8,11.2,4.7,11,4.7,11"/>
	<path class="st3" d="M4.8,11.4c0,0,0.1-0.1,0.1-0.1s0.2,0.1,0.2,0.1C5,11.4,4.8,11.4,4.8,11.4"/>
	<path class="st3" d="M5.5,11.4h0.1l-0.1-0.1"/>
	<path class="st3" d="M5.4,11.1l0.2,0l0.1,0l-0.2,0.1L5.4,11.1z"/>
	<path class="st3" d="M5.6,10.9c0,0-0.1-0.1,0-0.2C5.6,10.8,5.6,10.9,5.6,10.9"/>
	<path class="st3" d="M5.3,10.6c0,0,0.1,0,0.2-0.1c0.1,0.1,0.1,0.1,0.1,0.1l-0.2,0.1"/>
	<path class="st3" d="M6.1,10.6c0,0-0.1-0.1,0-0.1C6.1,10.6,6.1,10.6,6.1,10.6"/>
	<path class="st3" d="M6.1,10.8L6.1,10.8l0.3,0l-0.1,0.1L6.1,10.8z"/>
	<path class="st3" d="M6.1,11.1c0,0,0.4,0,0.3,0C6.3,11.1,6.2,11.2,6.1,11.1"/>
	<path class="st3" d="M6.1,11.4c0,0,0-0.1,0.1-0.1c0,0,0.2,0.1,0.2,0.1"/>
	<path class="st3" d="M8,6.4L8,6.4c0.1-0.1,0.1,0.2,0.1,0.4C8,6.4,8,6.4,8,6.4"/>
	<path class="st3" d="M7.8,7.2c0,0-0.1,0.4-0.1,0.4c0,0-0.1-0.2-0.1-0.2L7.5,7.5l0.1,0l-0.1,0l0.1,0.2l0.2-0.1l0.1-0.1l0-0.1
		l0.1-0.1"/>
	<path class="st3" d="M8,7.3C8,7.3,8.1,7.3,8,7.3c0.1,0.1,0,0.3,0,0.3L7.9,7.5"/>
	<path class="st3" d="M7.4,8.2v0.6c0,0-0.5,0.2-0.5,0.3C6.8,9.2,6.7,9.4,6.7,9.4S6.9,8.9,7,8.8c0.1-0.1,0.3-0.1,0.3-0.1
		c0,0,0.1-0.4,0.1-0.4L7.1,8.6L6.9,8.8c0,0,0.1-0.2,0.2-0.2C7.2,8.5,7.4,8.2,7.4,8.2"/>
	<path class="st3" d="M7.5,8c0,0,0.1-0.2,0.1-0.2s0.1,0,0.2,0c0,0,0.2-0.2,0.2-0.1c0,0-0.2,0.2-0.2,0.2l-0.2,0"/>
	<path class="st3" d="M8.2,7.7c0,0,0.2,0.2,0.1,0.4C8.3,8.2,8.2,8.4,8.2,8.6C8.1,8.7,7.7,9.1,7.6,9.2c0,0.1-0.2,0.2-0.2,0.1
		C7.6,9,7.7,9,7.7,9V8.9c0,0,0.2-0.2,0.3-0.4c0.1-0.2,0.2-0.3,0.2-0.4C8.2,8,8.2,7.7,8.2,7.7"/>
	<path class="st3" d="M8.4,8.3L8,9.6c0,0,0,0.1,0.1-0.1c0.1-0.1,0.1-0.2,0.1-0.2s0.1,0,0.1,0c0,0,0.1-0.5,0.1-0.6
		C8.4,8.7,8.4,8.3,8.4,8.3"/>
	<path class="st3" d="M7.1,9.8c0,0,0,0.5-0.1,0.6c0-0.2,0-0.2,0-0.2l-0.3,0.7l-0.1-0.1L7,10.1c0,0,0.1,0,0.1,0
		C7.1,10.1,7.1,9.8,7.1,9.8"/>
	<path class="st3" d="M6.6,10.5c0,0-0.3,0-0.3,0c0,0,0.3,0.3,0.3,0.3c-0.1,0,0.1-0.2,0.1-0.2C6.6,10.6,6.5,10.5,6.6,10.5"/>
</g>
</svg>
