<?xml version="1.0" encoding="utf-8"?>
<!-- Generator: Adobe Illustrator 26.0.3, SVG Export Plug-In . SVG Version: 6.00 Build 0)  -->
<svg version="1.1" id="圖層_1" xmlns="http://www.w3.org/2000/svg" xmlns:xlink="http://www.w3.org/1999/xlink" x="0px" y="0px"
	 width="18px" height="24px" viewBox="0 0 18 24" style="enable-background:new 0 0 18 24;" xml:space="preserve">
<style type="text/css">
	.st0{fill:#9F8400;}
	.st1{fill:#081055;}
	.st2{fill:#C30001;}
	.st3{fill:#FFFFFF;}
</style>
<g>
	<path class="st0" d="M13.2,7.3C13.2,7.3,13.1,7.3,13.2,7.3c-0.1-0.4-0.4-0.7-0.9-0.7c-0.3,0-0.6,0.2-0.7,0.5C11,7,10.3,6.9,9.8,6.9
		C9.7,6.6,9.4,6.3,9,6.3S8.3,6.5,8.2,6.9C7.6,6.9,7,7,6.4,7.1C6.3,6.8,6,6.6,5.7,6.6c-0.4,0-0.8,0.3-0.8,0.7H4.8
		C2.9,7.8,1.1,8.3,0,8.6C0.8,15.7,5.6,21.3,9,24c3.3-2.8,8.1-8.3,9-15.4C16.9,8.3,15.1,7.8,13.2,7.3"/>
	<path class="st1" d="M17,8.8c-1.1-0.3-2.5-0.7-3.9-1.1H13C12.9,7.9,12.8,8,12.6,8v2c0.3,0.1,0.5,0.4,0.5,0.7c0,0.3-0.2,0.6-0.5,0.7
		V12c0,0.7-0.1,1.3-0.3,1.8c0.1,0.1,0.2,0.3,0.2,0.6c0,0.4-0.3,0.8-0.8,0.8c-0.6,1.1-1.4,1.9-2,2.3v0.2c0,0.4-0.4,0.8-0.8,0.8v4.7
		c2.1-1.8,7.4-7,8.4-14.4C17.2,8.9,17,8.8,17,8.8"/>
	<path class="st2" d="M8.2,17.8v-0.2c-0.6-0.4-1.4-1.2-2-2.3c-0.4,0-0.8-0.4-0.8-0.8c0-0.2,0.1-0.4,0.2-0.6
		c-0.2-0.6-0.3-1.2-0.3-1.8v-0.6c-0.3-0.1-0.5-0.4-0.5-0.7c0-0.3,0.2-0.6,0.5-0.7v-2C5.1,8,5,7.9,4.9,7.8H4.8C3.3,8.2,2,8.6,0.9,8.9
		c0,0-0.2,0.1-0.5,0.1c1,7.4,6.3,12.6,8.4,14.4v-4.7C8.6,18.6,8.2,18.3,8.2,17.8"/>
	<path class="st3" d="M6,8.1v2c0.3,0.1,0.5,0.4,0.5,0.7c0,0.3-0.2,0.6-0.5,0.7v0.6c0,0.6,0.1,1.1,0.2,1.6h0.1c0.4,0,0.8,0.4,0.8,0.8
		c0,0.3-0.1,0.5-0.3,0.6c0.5,0.9,1.2,1.6,1.8,2c0.1-0.1,0.3-0.2,0.5-0.2c0.2,0,0.4,0.1,0.5,0.2c0.6-0.4,1.3-1.1,1.8-2
		C11.1,15,11,14.8,11,14.6c0-0.4,0.4-0.8,0.8-0.8h0.1c0.1-0.5,0.2-1,0.2-1.6v-0.6c-0.3-0.1-0.5-0.4-0.5-0.7c0-0.3,0.2-0.6,0.5-0.7
		v-2c-0.3-0.1-0.5-0.3-0.5-0.6C11,7.5,10.4,7.4,9.8,7.4C9.7,7.7,9.4,7.9,9.1,7.9c-0.3,0-0.6-0.2-0.7-0.5c-0.6,0-1.2,0.1-1.8,0.2
		C6.4,7.8,6.2,8,6,8.1"/>
	<path class="st0" d="M7.3,12.3c-0.1,0-0.2,0.1-0.2,0.1l-0.2,0.4c0,0-0.1,0.3,0.3,0.4c0,0,0.1-0.2,0.1-0.4c0,0,0-0.2,0.2-0.2h0.4
		v-0.4C7.9,12.3,7.4,12.3,7.3,12.3 M11,10.8c-0.2-0.2-0.4-0.4-0.7-0.4c-0.2,0-0.3,0.1-0.4,0.2c-0.1,0.1-0.1,0.3,0.1,0.5
		c0.2,0.2,0.4,0.3,0.4,0.5c0,0.2-0.1,0.2-0.1,0.2H9l0.2,0.4H8.7v0.5l-0.4-0.3L8,12.7l-0.1,0.9c0,0,0,0.1-0.1,0.1H7.6
		c0,0-0.1,0.1-0.1,0.3h0.6l0.1-0.2C8.3,13.6,8.6,13,8.6,13v-0.3l0.1,0.1V13c0,0,0.5-0.3,0.9-0.2c0,0,0.6,0.2,0.7,0.6v0.3
		c0,0-0.2,0-0.3,0.1c0,0-0.1,0.1-0.1,0.2h0.7l0.1-0.3L10.6,13c0,0-0.4-0.4-0.4-0.7c0,0,0.4,0,0.4-0.5s-0.4-0.7-0.5-0.8
		c-0.1-0.1-0.1-0.2,0-0.3c0.1-0.1,0.3,0,0.3,0.1c0,0,0,0.2,0.3,0.4l0.1-0.1c0,0,0,0.1,0.3,0.1C11.1,11.1,11.2,10.9,11,10.8"/>
	<path class="st0" d="M9.3,12.9l0.1,0.3c0,0.2-0.2,0.5-0.2,0.5H8.9c0,0-0.1,0.1-0.1,0.3h0.7l0.4-0.5c0,0,0.1-0.1,0.1-0.2
		c0-0.1,0.1-0.3,0.1-0.3C9.6,12.8,9.3,12.9,9.3,12.9 M9.3,11.7l-0.2-0.3V11c0-0.2-0.1-0.2-0.1-0.2s-0.3-0.3-0.4-0.4
		c-0.1-0.1-0.2-0.1-0.2-0.1v-0.1c0-0.1-0.1-0.1-0.1-0.1H8c0,0,0-0.1-0.1-0.1c-0.1,0.1-0.4,0.4-0.6,0.6l-0.1,0.2L7.3,11l0.2-0.1
		c0,0,0.1-0.1,0.2,0l-0.3,0.2c0,0.1,0.1,0.1,0.1,0.1h0.2l0.1,0.2H8v-0.3h0.1v-0.3h0.1v0.4H8.1v0.3H7.9l-0.4,0.4h0.3l-0.2,0.4H8v0.4
		l0.4-0.4l0.4,0.3V12h0.5L9,11.7"/>
	<path class="st3" d="M7.8,10.5C7.8,10.5,7.7,10.5,7.8,10.5c-0.1,0.1,0,0.1,0,0.1S7.9,10.6,7.8,10.5C7.9,10.5,7.9,10.5,7.8,10.5"/>
	<path class="st2" d="M8.2,9.6V9.5V9.6"/>
	<path class="st0" d="M8.5,9.6C8.5,9.6,8.6,9.6,8.5,9.6C8.6,9.6,8.5,9.7,8.5,9.6C8.5,9.7,8.5,9.6,8.5,9.6 M7.8,9.6
		C7.8,9.6,7.9,9.6,7.8,9.6C7.9,9.6,7.8,9.7,7.8,9.6C7.8,9.7,7.8,9.6,7.8,9.6"/>
	<path class="st2" d="M8.8,9.8V9.7h0.1"/>
	<path class="st0" d="M8.2,9.7c-0.1,0-0.4,0-0.7,0.1v0.1C7.8,9.8,8.1,9.7,8.2,9.7c0.1,0.1,0.4,0.1,0.6,0.2V9.8
		C8.6,9.7,8.3,9.7,8.2,9.7 M8.9,9.6C8.7,9.5,8.3,9.5,8.2,9.5c-0.1,0-0.5,0-0.7,0.1v0.1c0.2-0.1,0.6-0.1,0.7-0.1
		C8.3,9.5,8.6,9.6,8.9,9.6 M8.5,9.3C8.5,9.2,8.5,9.2,8.5,9.3C8.6,9.2,8.6,9.2,8.5,9.3C8.6,9.3,8.6,9.3,8.5,9.3 M8.2,9.2
		C8.1,9.2,8.1,9.2,8.2,9.2C8.1,9.1,8.2,9.1,8.2,9.2L8.2,9.2z M7.8,9.3C7.7,9.3,7.7,9.3,7.8,9.3C7.7,9.2,7.7,9.2,7.8,9.3
		C7.8,9.2,7.8,9.2,7.8,9.3 M8.9,9.3C8.9,9.2,8.9,9.2,8.9,9.3H8.7v0.1c0,0-0.2,0-0.2-0.1h0.1V9.2c0,0,0-0.1-0.1-0.1
		c0,0-0.1,0-0.1,0.1H8.3v0.1H8.1V9.2c0.1,0,0.1,0,0.1-0.1C8.2,9,8.2,9,8.1,9c0-0.1,0-0.1-0.1-0.1S7.9,8.9,7.9,9C7.8,9,7.8,9,7.8,9.1
		c0,0.1,0,0.1,0.1,0.1c0.1,0,0,0,0,0.1H7.7c0,0,0.1,0,0-0.1c0,0,0-0.1-0.1,0c0,0,0-0.1-0.1-0.1c0,0-0.1,0-0.1,0.1c0,0-0.1,0,0,0.1
		c0,0,0,0.1,0.1,0c-0.1,0-0.2,0.1-0.2,0.1V9.3c0,0,0-0.1-0.1-0.1H7.1c0-0.1-0.2-0.1-0.2-0.1L7,9.2h0.1v0.1l0.1,0.1c0,0,0,0.1,0.1,0
		C7.5,9.3,7.9,9.3,8,9.3s0.4,0,0.7,0.1L8.9,9.3L8.9,9.3C9,9.4,9,9.4,8.9,9.3C9,9.3,9,9.3,9,9.4l0.1-0.1C9.1,9.2,9,9.1,8.9,9.3"/>
	<path class="st2" d="M9.4,4.2L9,3.9L8.7,4.2L9,4.6L9.4,4.2z"/>
	<path class="st0" d="M11.4,4.1c0.2,0,0.3,0.1,0.3,0.3s-0.1,0.3-0.3,0.3c-0.2,0-0.3-0.1-0.3-0.3c0,0,0,0,0,0
		C11.1,4.2,11.2,4.1,11.4,4.1 M6.7,4.1C6.9,4.1,7,4.2,7,4.4c0,0.2-0.1,0.3-0.3,0.3c-0.2,0-0.3-0.1-0.3-0.3C6.4,4.3,6.5,4.1,6.7,4.1"
		/>
	<path class="st2" d="M13.6,4.6l-0.2,0.7L13.7,5 M4.7,5.3L4.4,4.6V5"/>
	<path class="st0" d="M9,4.6c-0.7,0-3,0.1-4.4,0.7l0.1,0.5C6.3,5.2,8.5,5.1,9,5.1c0.4,0,2.6,0.1,4.2,0.7l0.1-0.5
		C12,4.8,9.7,4.7,9,4.6 M13.7,4C12.2,3.4,9.6,3.3,9,3.3S5.8,3.4,4.3,4l0.1,0.5C6,3.9,8.3,3.8,9,3.8c0.7,0,3,0.1,4.6,0.7
		C13.8,4,13.8,4,13.7,4"/>
	<path class="st0" d="M11.5,2c0-0.2,0.1-0.3,0.3-0.3c0.2,0,0.3,0.1,0.3,0.3c0,0.2-0.1,0.3-0.3,0.3C11.6,2.3,11.5,2.1,11.5,2 M9,1.8
		c-0.2,0-0.4-0.2-0.4-0.4C8.6,1.2,8.8,1,9,1s0.4,0.2,0.4,0.4C9.4,1.6,9.2,1.8,9,1.8 M6.3,2.3C6.1,2.3,6,2.1,6,2
		c0-0.2,0.1-0.3,0.3-0.3c0.2,0,0.3,0.1,0.3,0.3C6.6,2.1,6.4,2.3,6.3,2.3 M14.2,2c-0.1-0.2-0.3-0.3-0.5-0.3c-0.3,0-0.6,0.3-0.6,0.6
		c0,0.2,0.1,0.3,0.2,0.4c0,0,0.2,0.1,0.2,0.2c0,0.1,0,0.2-0.1,0.2c-0.1,0-1.1-0.3-1.5-0.4c-0.1,0-0.1-0.2,0.1-0.1
		c0.2,0,0.5-0.1,0.5-0.3c0-0.2-0.1-0.5-0.3-0.5c0,0,0-0.1,0.1-0.1c0.1-0.3-0.1-0.5-0.4-0.6c-0.3-0.1-0.5,0.1-0.6,0.4v0.1
		c-0.2,0-0.5,0.1-0.5,0.3c0,0.2,0.1,0.4,0.3,0.5c0.2,0.1,0.1,0.2,0,0.2c-0.1,0-1.3-0.1-1.7-0.1c-0.2,0-0.3-0.3,0.1-0.3
		c0.4,0,0.6-0.3,0.6-0.6C10.1,1.2,9.8,1,9.5,1V0.8C9.7,0.3,9.4,0,9,0S8.3,0.3,8.3,0.7v0.2c-0.4,0-0.6,0.3-0.6,0.6
		c0,0.4,0.3,0.6,0.6,0.6c0.4,0,0.3,0.3,0.1,0.3C8,2.4,6.8,2.5,6.7,2.5c-0.1,0-0.2-0.1,0-0.2C6.9,2.2,7.1,2,7,1.8
		c0-0.2-0.3-0.4-0.5-0.3V1.4C6.4,1.1,6.2,1,5.9,1C5.6,1.1,5.5,1.3,5.5,1.6c0,0,0,0.1,0.1,0.1C5.4,1.7,5.2,2,5.3,2.2
		c0,0.2,0.3,0.4,0.5,0.3C6,2.5,6,2.6,5.9,2.6C5.4,2.7,4.5,3,4.4,3C4.3,3,4.3,2.9,4.3,2.8c0-0.1,0.2-0.2,0.2-0.2
		c0.1-0.1,0.2-0.3,0.2-0.4c0-0.3-0.3-0.6-0.6-0.6c-0.2,0-0.4,0.1-0.5,0.3c-0.3-1-1.3-0.5-1.3-0.5l0.5,0.9c0.1-0.1,0.3-0.1,0.4,0
		c0.1,0.1,0.1,0.3,0,0.5L3.1,2.9l0.4,0.7c0,0,0.1,0.3,0.7,0.1C6,3.2,8.4,3.1,9,3.1c0.6,0,3,0.1,4.5,0.6c0.6,0.2,0.7-0.1,0.7-0.1
		l0.4-0.7l-0.1-0.1c-0.1-0.1-0.1-0.3,0-0.5c0.1-0.1,0.3-0.1,0.4,0l0.5-0.9C15.5,1.5,14.5,1,14.2,2"/>
	<path class="st3" d="M2.4,10.9c0-0.5,0.4-0.8,0.8-0.8h0.6V9.8H3.2C2.6,9.8,2,10.3,2,11s0.5,1.2,1.2,1.2h0.6v-0.3H3.2
		C2.7,11.7,2.4,11.3,2.4,10.9 M15.7,11.2h-1.2v-0.6c0-0.5,0.3-0.6,0.6-0.6c0.3,0,0.6,0.3,0.6,0.6L15.7,11.2z M15.1,9.6
		c-0.4,0-0.9,0.4-0.9,1V12h0.3v-0.5h1.2V12H16v-1.4C16,10,15.5,9.6,15.1,9.6 M9,21.6c-0.5,0-0.8-0.4-0.8-0.8C8.2,20.3,8.6,20,9,20
		c0.5,0,0.8,0.4,0.8,0.8C9.9,21.2,9.5,21.6,9,21.6 M9,19.6c-0.6,0-1.2,0.5-1.2,1.2C7.8,21.5,8.3,22,9,22c0.6,0,1.2-0.5,1.2-1.2
		C10.2,20.1,9.7,19.6,9,19.6 M9,17.4c0.2,0,0.4,0.2,0.4,0.4S9.2,18.2,9,18.2c-0.2,0-0.4-0.2-0.4-0.4C8.6,17.6,8.8,17.4,9,17.4
		 M12.3,10.4c0.2,0,0.4,0.2,0.4,0.4s-0.2,0.4-0.4,0.4c-0.2,0-0.4-0.2-0.4-0.4C11.9,10.6,12.1,10.4,12.3,10.4 M5.7,10.4
		c0.2,0,0.4,0.2,0.4,0.4s-0.2,0.4-0.4,0.4S5.3,11,5.3,10.8C5.3,10.6,5.5,10.4,5.7,10.4 M6.3,14.1c0.2,0,0.4,0.2,0.4,0.4
		c0,0.2-0.2,0.4-0.4,0.4c-0.2,0-0.4-0.2-0.4-0.4C5.8,14.3,6,14.1,6.3,14.1 M12.3,6.9c0.2,0,0.4,0.2,0.4,0.4s-0.2,0.4-0.4,0.4
		c-0.2,0-0.4-0.2-0.4-0.4C11.9,7.1,12.1,6.9,12.3,6.9 M5.7,6.9c0.2,0,0.4,0.2,0.4,0.4S5.9,7.7,5.7,7.7S5.3,7.5,5.3,7.3
		C5.3,7.1,5.5,6.9,5.7,6.9 M9,6.6c0.2,0,0.4,0.2,0.4,0.4c0,0.2-0.2,0.4-0.4,0.4C8.8,7.4,8.6,7.2,8.6,7C8.6,6.8,8.8,6.6,9,6.6
		 M11.8,14.1c0.2,0,0.4,0.2,0.4,0.4c0,0.2-0.2,0.4-0.4,0.4c-0.2,0-0.4-0.2-0.4-0.4C11.3,14.3,11.5,14.1,11.8,14.1"/>
</g>
</svg>
