<?xml version="1.0" encoding="utf-8"?>
<!-- Generator: Adobe Illustrator 26.0.3, SVG Export Plug-In . SVG Version: 6.00 Build 0)  -->
<svg version="1.1" id="栝鍣_1" xmlns="http://www.w3.org/2000/svg" xmlns:xlink="http://www.w3.org/1999/xlink" x="0px" y="0px"
	 width="47px" height="42px" viewBox="0 0 47 42" style="enable-background:new 0 0 47 42;" xml:space="preserve">
<style type="text/css">
	.st0{opacity:0.5;clip-path:url(#XMLID_00000020399195481124055290000002319869276443407510_);fill:#AF0022;}
	.st1{fill:url(#SVGID_1_);}
	.st2{fill:#FFFFFF;}
</style>
<g id="侹禖嶱鼨懧鎀_4">
	<g>
		<defs>
			<path id="XMLID_49_" d="M32.24,35.3c6.26-4.1,9.2-10.03,9.2-17.06c0-10.36-8.58-18.7-18.98-18.22
				C13.19,0.45,5.66,8.01,5.21,17.33c-0.37,7.82,4.15,14.62,10.76,17.57v4.91c0,2.41,0.83,2.54,3.01,1.77
				C18.98,41.59,25.98,39.4,32.24,35.3z"/>
		</defs>
		
			<linearGradient id="XMLID_00000124131233022394607370000005945579450585847719_" gradientUnits="userSpaceOnUse" x1="35.2446" y1="-1.3009" x2="16.5679" y2="29.9734">
			<stop  offset="0" style="stop-color:#D000AA"/>
			<stop  offset="1" style="stop-color:#FF2E2E"/>
		</linearGradient>
		<use xlink:href="#XMLID_49_"  style="overflow:visible;fill:url(#XMLID_00000124131233022394607370000005945579450585847719_);"/>
		<clipPath id="XMLID_00000030452435148547633430000003004309332743295886_">
			<use xlink:href="#XMLID_49_"  style="overflow:visible;"/>
		</clipPath>
		<path style="opacity:0.5;clip-path:url(#XMLID_00000030452435148547633430000003004309332743295886_);fill:#AF0022;" d="
			M15.97,35.03v2.75c1.32,0.29,2.7,0.44,4.11,0.44c3.2,0,6.22-0.77,8.89-2.14c0.06-0.03,0.02-0.11-0.04-0.1
			c-1.64,0.45-3.36,0.69-5.14,0.69C21.01,36.67,18.37,36.08,15.97,35.03z"/>
	</g>
</g>
<g>
	<linearGradient id="SVGID_1_" gradientUnits="userSpaceOnUse" x1="9.094947e-13" y1="17.7455" x2="47" y2="17.7455">
		<stop  offset="0" style="stop-color:#FE2D30"/>
		<stop  offset="1" style="stop-color:#DC0C8A"/>
	</linearGradient>
	<path class="st1" d="M46.31,17.26L47,13.49l-1.08,0.02l0.68-3.66l-4.78,3.09l-0.12,0.64l-0.87,0.01l-0.12,0.67
		c-0.71-0.52-1.59-0.79-2.63-0.79c-0.03,0-0.07,0-0.1,0c-1.4,0.02-2.56,0.51-3.45,1.45c-0.06-0.08-0.12-0.16-0.19-0.23
		c-0.64-0.73-1.52-1.12-2.52-1.12l-0.07,0c-0.38,0.01-0.75,0.07-1.1,0.18l-2.46,0.04l-0.97,0.02v0l-2.17,0.03l0.48-2.6l-4.21,0.07
		l-0.62,3.35c-0.67-0.57-1.53-0.86-2.55-0.86c-0.03,0-0.06,0-0.09,0c-0.94,0.02-1.81,0.28-2.59,0.8c-0.31,0.2-0.59,0.44-0.83,0.7
		c-0.15-0.22-0.33-0.42-0.55-0.6c-0.61-0.52-1.48-0.78-2.56-0.78c-0.04,0-0.08,0-0.11,0c-0.85,0.01-1.59,0.19-2.21,0.51l0.54-2.92
		l-4.27,0.07l-1.19,6.42l-4.17,0.53l-0.09,0.95C0.01,19.69,0,19.91,0,20.1c0.02,1.03,0.38,1.91,1.06,2.54
		c0.65,0.6,1.56,0.91,2.69,0.91c0.03,0,0.07,0,0.11,0c1.37-0.02,2.43-0.44,3.14-1.24c0.05-0.06,0.11-0.13,0.16-0.19
		c0.11,0.16,0.23,0.31,0.37,0.45c0.58,0.58,1.33,0.89,2.17,0.89l0.06,0c0.38-0.01,0.76-0.08,1.13-0.21l0.01,0.03l4.2-0.07
		l-0.14-0.46c0.61,0.39,1.33,0.59,2.16,0.59c0.03,0,0.06,0,0.08,0c0.72-0.01,1.39-0.18,1.99-0.49l-0.06,0.3l4.21-0.07l0.24-1.31
		l0.4,1.3l1.54-0.02l-0.48,2.61l4.21-0.07l0.48-2.63c0.34,0.11,0.72,0.16,1.11,0.16l0.07,0c1.19-0.02,2.25-0.56,3.08-1.56
		c0.01-0.01,0.02-0.03,0.03-0.04c0.32,0.41,0.73,0.74,1.22,1c0.63,0.33,1.35,0.49,2.13,0.49c0.03,0,0.06,0,0.09,0
		c1.35-0.02,2.51-0.51,3.38-1.42c0.16,0.3,0.37,0.52,0.55,0.68c0.5,0.42,1.2,0.64,2.07,0.64c0.03,0,0.06,0,0.09,0
		c0.4-0.01,0.8-0.05,1.18-0.14l0.77-0.17l0.7-3.73l-1.32,0.15l0.32-1.74L46.31,17.26z M17.79,18.06l-0.32,0.96
		c-0.03,0.11-0.07,0.19-0.1,0.25c0.01-0.3,0.07-0.63,0.17-0.98c0.12-0.41,0.25-0.58,0.32-0.65c0.01-0.01,0.02-0.02,0.03-0.03
		l0.06,0.47L17.79,18.06z M31.01,18.7c-0.15,0.44-0.28,0.56-0.29,0.57c-0.03,0.02-0.05,0.04-0.06,0.05c0,0,0,0,0,0
		c-0.04-0.05-0.09-0.2-0.1-0.46c0-0.17,0.02-0.46,0.16-0.92c0.11-0.36,0.23-0.52,0.3-0.58c0.07-0.06,0.1-0.07,0.12-0.07
		c0.01,0.03,0.06,0.13,0.06,0.38C31.2,17.97,31.14,18.32,31.01,18.7z M37.75,19.01c-0.13,0.18-0.21,0.18-0.28,0.18
		c-0.02,0-0.04,0-0.04,0c0,0-0.01-0.01-0.03-0.03c-0.05-0.06-0.08-0.19-0.09-0.36c0-0.26,0.05-0.56,0.17-0.9
		c0.09-0.26,0.2-0.45,0.32-0.55c0.08-0.07,0.15-0.1,0.26-0.1l0.01,0c0.03,0,0.05,0,0.06,0c0,0,0,0,0,0s0,0,0.01,0.01
		c0.03,0.03,0.05,0.12,0.05,0.23C38.19,18.11,38.05,18.6,37.75,19.01z"/>
	<path class="st2" d="M6.48,12.74l1.83-0.03l-1.05,5.72c-0.28,1.52-0.66,2.55-1.15,3.09c-0.49,0.54-1.24,0.82-2.27,0.84
		c-0.87,0.01-1.52-0.18-1.96-0.59c-0.44-0.41-0.67-0.97-0.68-1.68c0-0.15,0.01-0.32,0.02-0.5l1.72-0.22
		c-0.02,0.19-0.03,0.35-0.03,0.47c0,0.3,0.09,0.53,0.26,0.68c0.17,0.16,0.42,0.23,0.76,0.23c0.48-0.01,0.81-0.16,1-0.45
		c0.14-0.22,0.31-0.85,0.5-1.89L6.48,12.74z"/>
	<path class="st2" d="M10.21,17.21l-1.73-0.13c0.19-0.61,0.53-1.09,1.01-1.44c0.49-0.35,1.14-0.53,1.95-0.55
		c0.85-0.01,1.47,0.15,1.88,0.5c0.41,0.35,0.62,0.77,0.63,1.28c0,0.21-0.01,0.42-0.04,0.66c-0.03,0.23-0.14,0.84-0.34,1.83
		c-0.16,0.82-0.24,1.39-0.23,1.71c0,0.29,0.06,0.61,0.16,0.97l-1.73,0.03c-0.07-0.25-0.12-0.5-0.14-0.77
		c-0.25,0.3-0.55,0.54-0.89,0.7c-0.34,0.17-0.67,0.25-1.02,0.26c-0.54,0.01-1-0.17-1.36-0.53c-0.36-0.36-0.55-0.84-0.56-1.42
		c-0.01-0.65,0.18-1.17,0.56-1.57c0.38-0.4,1.08-0.64,2.08-0.74c0.84-0.09,1.41-0.18,1.69-0.29c0.07-0.26,0.1-0.46,0.1-0.62
		c0-0.2-0.08-0.36-0.24-0.49c-0.15-0.13-0.38-0.19-0.68-0.19c-0.32,0.01-0.57,0.08-0.75,0.21C10.4,16.76,10.27,16.96,10.21,17.21z
		 M11.93,18.89c-0.11,0.03-0.25,0.06-0.43,0.09c-0.89,0.13-1.47,0.3-1.74,0.52c-0.19,0.16-0.28,0.37-0.28,0.63
		c0,0.21,0.08,0.39,0.23,0.54c0.15,0.15,0.35,0.22,0.59,0.21c0.27,0,0.52-0.08,0.75-0.21c0.24-0.14,0.41-0.31,0.52-0.53
		c0.11-0.21,0.21-0.55,0.3-1L11.93,18.89z"/>
	<path class="st2" d="M18.61,19.39l1.73,0.26c-0.27,0.8-0.68,1.41-1.23,1.84c-0.55,0.42-1.19,0.64-1.93,0.65
		c-0.84,0.01-1.51-0.23-2-0.74c-0.5-0.51-0.76-1.22-0.77-2.13c-0.01-0.74,0.13-1.44,0.41-2.11c0.29-0.66,0.73-1.19,1.32-1.58
		c0.59-0.39,1.24-0.59,1.96-0.6c0.78-0.01,1.4,0.19,1.87,0.6c0.47,0.41,0.74,0.96,0.81,1.64l-1.69,0.21
		c-0.05-0.38-0.16-0.66-0.35-0.84c-0.19-0.18-0.43-0.26-0.72-0.26c-0.34,0.01-0.66,0.14-0.95,0.41c-0.29,0.27-0.51,0.67-0.66,1.2
		c-0.15,0.53-0.22,1.03-0.21,1.49c0.01,0.4,0.11,0.71,0.3,0.93c0.19,0.22,0.43,0.32,0.72,0.32c0.28,0,0.56-0.12,0.82-0.33
		C18.27,20.14,18.47,19.82,18.61,19.39z"/>
	<path class="st2" d="M20.58,21.93l1.75-9.44l1.78-0.03l-0.91,4.91l2.28-2.34l2.31-0.04l-2.6,2.52l1.47,4.32l-1.78,0.03l-0.95-3.14
		l-1.18,1.12l-0.38,2.05L20.58,21.93z"/>
	<path class="st2" d="M28.23,14.98l1.68-0.03l-0.13,0.7c0.35-0.31,0.69-0.54,1-0.68c0.31-0.14,0.65-0.21,1.01-0.22
		c0.69-0.01,1.25,0.23,1.67,0.71c0.43,0.49,0.65,1.22,0.66,2.19c0.02,1.23-0.32,2.27-1.03,3.13c-0.61,0.73-1.33,1.11-2.18,1.12
		c-0.87,0.01-1.53-0.34-1.99-1.07l-0.65,3.55l-1.78,0.03L28.23,14.98z M29.36,18.88c0.01,0.53,0.14,0.94,0.39,1.23
		c0.25,0.29,0.55,0.43,0.89,0.43c0.29,0,0.57-0.12,0.84-0.34c0.27-0.22,0.49-0.59,0.66-1.11c0.17-0.51,0.25-0.99,0.25-1.43
		c-0.01-0.51-0.13-0.9-0.37-1.17c-0.24-0.27-0.54-0.4-0.9-0.39c-0.34,0.01-0.64,0.14-0.92,0.39c-0.27,0.25-0.48,0.63-0.63,1.11
		C29.43,18.09,29.36,18.51,29.36,18.88z"/>
	<path class="st2" d="M34.34,18.87c-0.02-1.26,0.31-2.27,0.98-3.04c0.67-0.76,1.57-1.15,2.69-1.17c0.97-0.02,1.73,0.25,2.28,0.79
		c0.55,0.55,0.84,1.29,0.85,2.22c0.02,1.1-0.31,2.06-0.97,2.88c-0.67,0.82-1.57,1.23-2.71,1.25c-0.62,0.01-1.17-0.11-1.65-0.36
		c-0.48-0.25-0.85-0.61-1.09-1.07C34.47,19.92,34.35,19.41,34.34,18.87z M39.38,17.48c-0.01-0.44-0.14-0.78-0.38-1.04
		c-0.25-0.26-0.57-0.39-0.96-0.38c-0.38,0.01-0.72,0.13-1.01,0.39c-0.29,0.25-0.52,0.61-0.68,1.08c-0.16,0.47-0.23,0.9-0.23,1.3
		c0.01,0.49,0.14,0.87,0.4,1.16c0.26,0.28,0.58,0.42,0.97,0.41c0.49-0.01,0.89-0.23,1.21-0.67C39.17,19.1,39.39,18.35,39.38,17.48z"
		/>
	<path class="st2" d="M41.59,16.14l0.25-1.37l0.87-0.01l0.2-1.09l2.01-1.3l-0.44,2.37l1.08-0.02l-0.25,1.37l-1.09,0.02l-0.53,2.87
		c-0.09,0.52-0.14,0.82-0.14,0.89c0,0.14,0.05,0.25,0.14,0.33c0.09,0.08,0.25,0.11,0.47,0.11c0.08,0,0.27-0.02,0.59-0.05l-0.26,1.37
		c-0.3,0.07-0.62,0.11-0.94,0.11c-0.63,0.01-1.08-0.11-1.37-0.35c-0.29-0.25-0.44-0.59-0.44-1.04c0-0.21,0.06-0.69,0.21-1.45
		l0.51-2.75L41.59,16.14z"/>
</g>
</svg>
