<?xml version="1.0" encoding="utf-8"?>
<!-- Generator: Adobe Illustrator 16.0.0, SVG Export Plug-In . SVG Version: 6.00 Build 0)  -->
<!DOCTYPE svg PUBLIC "-//W3C//DTD SVG 1.1//EN" "http://www.w3.org/Graphics/SVG/1.1/DTD/svg11.dtd">
<svg version="1.1" id="圖層_1" xmlns="http://www.w3.org/2000/svg" xmlns:xlink="http://www.w3.org/1999/xlink" x="0px" y="0px"
	 width="50px" height="44px" viewBox="0 0 50 44" enable-background="new 0 0 50 44" xml:space="preserve">
<path fill="#F49F16" d="M49.422,37.817L28.6,2.067C27.879,0.833,26.531,0,24.988,0s-2.89,0.833-3.611,2.067L0.554,37.817
	C0.203,38.422,0,39.125,0,39.874C0,42.151,1.866,44,4.165,44h41.647c2.299,0,4.164-1.849,4.164-4.126
	C49.977,39.125,49.775,38.422,49.422,37.817z"/>
<polygon fill="#F49F16" points="4.162,39.879 24.984,4.125 24.988,4.125 24.991,4.129 45.813,39.874 "/>
<ellipse fill="#FFFFFF" cx="24.988" cy="34.321" rx="2.804" ry="2.777"/>
<path fill="#FFFFFF" d="M21.667,17.12c0,0.188,0.017,0.374,0.047,0.553l1.636,9.591c0.134,0.778,0.816,1.369,1.639,1.369
	s1.504-0.591,1.637-1.369l1.637-9.591c0.031-0.179,0.047-0.365,0.047-0.553c0-1.815-1.486-3.289-3.32-3.289
	C23.155,13.831,21.667,15.304,21.667,17.12z"/>
</svg>
