<?xml version="1.0" encoding="utf-8"?>
<!-- Generator: Adobe Illustrator 26.0.3, SVG Export Plug-In . SVG Version: 6.00 Build 0)  -->
<svg version="1.1" id="Layer_1" xmlns="http://www.w3.org/2000/svg" xmlns:xlink="http://www.w3.org/1999/xlink" x="0px" y="0px"
	 width="50px" height="50px" viewBox="0 0 50 50" style="enable-background:new 0 0 50 50;" xml:space="preserve">
<style type="text/css">
	.st0{fill:#8E8E8E;}
	.st1{fill:#FFFFFF;}
	.st2{fill:#030708;}
	.st3{fill:#ED1B24;}
</style>
<g>
	<path class="st0" d="M20.3,47l12.9-2.1c0.2,0,0.4-0.1,0.5-0.1c1.1-0.4,1.8-1.6,1.6-2.8L29.6,6.2c-0.2-1.4-1.6-2.4-3-2.1L2.2,8
		C1.5,8.1,0.9,8.5,0.5,9C0.2,9.4,0,9.9,0,10.4l0.2,1.4l2.2,14L4.3,38l1.1,7c0.5,2.9,1,3.2,1,3.2C6.9,48.7,7.6,49,8.3,49l0.8-0.1
		l8.8-1.4L20.3,47z"/>
	<path class="st1" d="M22.2,45.5L33,43.7c0.4-0.1,0.7-0.3,0.9-0.6c0.2-0.3,0.3-0.7,0.2-1L28.4,6.4c-0.1-0.4-0.3-0.7-0.6-0.9
		c-0.3-0.2-0.7-0.3-1-0.2l-19.3,3L6.2,8.6L3.7,8.9L2.4,9.2c-0.1,0-0.2,0-0.3,0.1c-0.3,0-0.5,0.2-0.6,0.4c-0.3,0.3-0.3,0.7-0.3,1v0.2
		l2.4,14.8L5.5,38l1.4,8.6c0.1,0.8,0.8,1.3,1.6,1.1l11.3-1.8L22.2,45.5z"/>
	<path class="st2" d="M15.9,18.2c7.4,3,11,8.6,8.3,11.4c-1.6,1.7-3.7,1.2-4.8,0.6c0.3,1.3,0.9,2.9,2.5,3c-3.9,0.8-4.4,0.9-4.4,0.9
		s1.4-0.9,0.7-3.8c-0.7,1.1-2.4,2.7-4.8,1.8C9.6,30.7,10.4,24.1,15.9,18.2z"/>
	<g>
		<g>
			<g>
				<path class="st2" d="M9.9,15.9l-1.3,0.2l-0.7-1.2l-2.5,0.4L5,16.7l-1.4,0.2l1.6-6.4l1.2-0.2L9.9,15.9z M7.2,13.7l-1.1-1.8
					l-0.5,2L7.2,13.7z"/>
			</g>
		</g>
	</g>
</g>
<g>
	<path class="st0" d="M26.6,46l12.7,2.8c0.2,0,0.4,0.1,0.5,0.1c1.2,0,2.3-0.8,2.5-2l7.6-35.4c0.3-1.4-0.6-2.8-2-3.1L23.8,3
		c-0.7-0.1-1.4,0-1.9,0.4C21.5,3.7,21.2,4,21,4.6L20.6,6l-3,13.8L15,31.6l-1.5,7c-0.6,2.9-0.2,3.3-0.2,3.3c0.3,0.6,0.8,1.2,1.5,1.4
		l0.8,0.2l8.7,1.9L26.6,46z"/>
	<path class="st1" d="M28.9,45.3l10.6,2.3c0.4,0.1,0.7,0,1-0.2c0.3-0.2,0.5-0.5,0.6-0.9l7.6-35.4c0.1-0.4,0-0.7-0.2-1
		c-0.2-0.3-0.5-0.5-0.9-0.6l-19-4.2L27.3,5l-2.4-0.5l-1.3-0.3c-0.1,0-0.2,0-0.3,0c-0.3,0-0.5,0.1-0.7,0.2c-0.3,0.2-0.5,0.5-0.6,0.9
		v0.2l-3.3,14.6l-2.6,12l-1.8,8.5c-0.2,0.7,0.3,1.5,1.1,1.6l11.2,2.4L28.9,45.3z"/>
	<path class="st3" d="M27.3,18.5c3.1-1.2,5.1,1.8,5.2,2.6c0.5-0.7,3.5-2.5,5.8-0.2c2.8,2.8-0.8,8.6-8.3,11.7
		C24.5,26.7,23.6,20,27.3,18.5z"/>
	<g>
		<g>
			<g>
				<g>
					<path class="st3" d="M28,13l-1.3-0.3l-0.2-1.4L24,10.7l-0.8,1.2l-1.3-0.3l3.8-5.4l1.2,0.3L28,13z M26.2,10l-0.3-2l-1.2,1.7
						L26.2,10z"/>
				</g>
			</g>
		</g>
	</g>
</g>
</svg>
