<?xml version="1.0" encoding="utf-8"?>
<!-- Generator: Adobe Illustrator 26.0.3, SVG Export Plug-In . SVG Version: 6.00 Build 0)  -->
<svg version="1.1" id="圖層_1" xmlns="http://www.w3.org/2000/svg" xmlns:xlink="http://www.w3.org/1999/xlink" x="0px" y="0px"
	 width="50px" height="50px" viewBox="0 0 50 50" style="enable-background:new 0 0 50 50;" xml:space="preserve">
<style type="text/css">
	.st0{fill:url(#SVGID_1_);}
	.st1{fill:url(#SVGID_00000168809409852882410670000016789085862508662145_);}
	.st2{fill:url(#SVGID_00000006672425038343033000000008909514603199549870_);}
	.st3{fill:url(#SVGID_00000020364929662597924810000011516807973437193662_);}
</style>
<g>
	<g>
		<linearGradient id="SVGID_1_" gradientUnits="userSpaceOnUse" x1="16.394" y1="16.4552" x2="16.394" y2="33.428">
			<stop  offset="0" style="stop-color:#FE4848"/>
			<stop  offset="1" style="stop-color:#852626"/>
		</linearGradient>
		<polygon class="st0" points="20,16.5 15.8,16.5 12.7,16.5 12.7,19.8 15.8,19.8 15.8,33.4 20,33.4 20,19.8 20,16.5 		"/>
	</g>
	
		<linearGradient id="SVGID_00000035496853535848781720000016546330108366427573_" gradientUnits="userSpaceOnUse" x1="25" y1="9.094947e-13" x2="25" y2="50">
		<stop  offset="0" style="stop-color:#FE4848"/>
		<stop  offset="1" style="stop-color:#852626"/>
	</linearGradient>
	<path style="fill:url(#SVGID_00000035496853535848781720000016546330108366427573_);" d="M44.6,18.4c0.7,2.1,1.1,4.3,1.1,6.6
		c0,11.4-9.3,20.7-20.7,20.7S4.3,36.4,4.3,25S13.6,4.3,25,4.3c2.3,0,4.6,0.4,6.7,1.1V0.9C29.6,0.3,27.3,0,25,0C11.2,0,0,11.2,0,25
		s11.2,25,25,25s25-11.2,25-25c0-2.3-0.3-4.5-0.9-6.6H44.6z"/>
	
		<linearGradient id="SVGID_00000045591357525612490440000001895495206210196918_" gradientUnits="userSpaceOnUse" x1="41.5109" y1="1.9525" x2="41.5109" y2="14.9634">
		<stop  offset="0" style="stop-color:#FE4848"/>
		<stop  offset="1" style="stop-color:#852626"/>
	</linearGradient>
	<polygon style="fill:url(#SVGID_00000045591357525612490440000001895495206210196918_);" points="48,6.7 43.3,6.7 43.3,2 39.7,2 
		39.7,6.7 35,6.7 35,10.2 39.7,10.2 39.7,15 43.3,15 43.3,10.2 48,10.2 	"/>
	
		<linearGradient id="SVGID_00000029025736473305467410000003205846999255911840_" gradientUnits="userSpaceOnUse" x1="30.4076" y1="16.3011" x2="30.4076" y2="33.9172">
		<stop  offset="0" style="stop-color:#FE4848"/>
		<stop  offset="1" style="stop-color:#852626"/>
	</linearGradient>
	<path style="fill:url(#SVGID_00000029025736473305467410000003205846999255911840_);" d="M34.5,24.4c1.2-0.8,1.9-1.9,1.9-3.5
		c0-3.1-2.7-4.5-6-4.5c-3.3,0-6,1.7-6,4.5c0,1.5,0.7,2.6,1.9,3.4c-1.7,0.8-2.8,2.3-2.8,4.4c0,3.6,3.1,5.2,7,5.2c3.8,0,7-2,7-5.2
		C37.4,26.7,36.3,25.2,34.5,24.4z M30.4,19.2c1.4,0,2.5,0.6,2.5,1.9c0,1.3-1.1,1.9-2.5,1.9c-1.4,0-2.5-0.7-2.5-1.9
		C27.9,19.9,29,19.2,30.4,19.2z M30.4,30.6c-1.6,0-2.9-0.7-2.9-2.2c0-1.5,1.3-2.2,2.9-2.2c1.6,0,2.9,0.8,2.9,2.2
		C33.3,29.7,32,30.6,30.4,30.6z"/>
</g>
</svg>
