<svg xmlns="http://www.w3.org/2000/svg"  viewBox="0 0 100 100" width="200px" height="200px" baseProfile="basic"><path fill="#c7ede6" d="M87.215,56.71C88.35,54.555,89,52.105,89,49.5c0-6.621-4.159-12.257-10.001-14.478	C78.999,35.015,79,35.008,79,35c0-11.598-9.402-21-21-21c-9.784,0-17.981,6.701-20.313,15.757C36.211,29.272,34.638,29,33,29	c-7.692,0-14.023,5.793-14.89,13.252C12.906,43.353,9,47.969,9,53.5C9,59.851,14.149,65,20.5,65c0.177,0,0.352-0.012,0.526-0.022	C21.022,65.153,21,65.324,21,65.5C21,76.822,30.178,86,41.5,86c6.437,0,12.175-2.972,15.934-7.614C59.612,80.611,62.64,82,66,82	c4.65,0,8.674-2.65,10.666-6.518C77.718,75.817,78.837,76,80,76c6.075,0,11-4.925,11-11C91,61.689,89.53,58.727,87.215,56.71z"/><path fill="#fdfcef" d="M36.876,58.5c0,0,3.64,0,6.125,0s4.5-2.015,4.5-4.5c0-2.333-1.782-4.229-4.055-4.455 c0.022-0.181,0.055-0.358,0.055-0.545c0-2.485-2.015-4.5-4.5-4.5c-1.438,0-2.703,0.686-3.527,1.736 c-0.14-2.636-2.302-4.736-4.973-4.736c-2.761,0-5,2.239-5,5c0,0.446,0.077,0.87,0.187,1.282c-0.642-0.777-1.6-1.282-2.687-1.282 c-1.781,0-3.234,1.335-3.455,3.055c-0.181-0.022-0.358-0.055-0.545-0.055c-2.485,0-4.5,2.015-4.5,4.5s2.015,4.5,4.5,4.5 s9.5,0,9.5,0h5.375V59h3V58.5z"/><path fill="#472b29" d="M30.501,41c-3.033,0-5.5,2.467-5.5,5.5c0,0.016,0,0.031,0,0.047c-0.602-0.354-1.29-0.547-2-0.547 c-1.831,0-3.411,1.261-3.858,3.005C19.096,49.002,19.048,49,19.001,49c-2.757,0-5,2.243-5,5s2.243,5,5,5h14.875 c0.276,0,0.5-0.224,0.5-0.5s-0.224-0.5-0.5-0.5H19.001c-2.206,0-4-1.794-4-4s1.794-4,4-4c0.117,0,0.23,0.017,0.343,0.032 l0.141,0.019c0.021,0.003,0.041,0.004,0.062,0.004c0.246,0,0.462-0.185,0.495-0.437C20.233,48.125,21.505,47,23.001,47 c0.885,0,1.723,0.401,2.301,1.1c0.098,0.118,0.241,0.182,0.386,0.182c0.078,0,0.156-0.018,0.228-0.056 c0.209-0.107,0.314-0.346,0.254-0.573C26.054,47.217,26,46.851,26,46.5c0-2.481,2.019-4.5,4.5-4.5c2.381,0,4.347,1.872,4.474,4.263 c0.011,0.208,0.15,0.387,0.349,0.45c0.05,0.016,0.101,0.024,0.152,0.024c0.15,0,0.296-0.069,0.392-0.192 C36.638,45.563,37.78,45,39.001,45c2.206,0,4,1.794,4,4c0,0.117-0.017,0.23-0.032,0.343l-0.019,0.141 c-0.016,0.134,0.022,0.268,0.106,0.373c0.084,0.105,0.207,0.172,0.34,0.185C45.451,50.247,47,51.948,47,54c0,2.206-1.794,4-4,4 h-6.125c-0.276,0-0.5,0.224-0.5,0.5s0.224,0.5,0.5,0.5H43c2.757,0,5-2.243,5-5c0-2.397-1.689-4.413-4.003-4.877 C43.999,49.082,44,49.041,44,49c0-2.757-2.243-5-5-5c-1.176,0-2.293,0.416-3.183,1.164C35.219,42.76,33.056,41,30.501,41L30.501,41 z"/><path fill="#472b29" d="M29.001,48c-1.403,0-2.609,0.999-2.913,2.341C25.72,50.119,25.302,50,24.876,50 c-1.202,0-2.198,0.897-2.353,2.068C22.32,52.022,22.127,52,21.938,52c-1.529,0-2.811,1.2-2.918,2.732 C19.011,54.87,19.114,54.99,19.252,55c0.006,0,0.012,0,0.018,0c0.13,0,0.24-0.101,0.249-0.232c0.089-1.271,1.151-2.268,2.419-2.268 c0.229,0,0.47,0.042,0.738,0.127c0.022,0.007,0.045,0.01,0.067,0.01c0.055,0,0.11-0.02,0.156-0.054 c0.064-0.047,0.102-0.129,0.102-0.209c0-1.034,0.841-1.875,1.875-1.875c0.447,0,0.885,0.168,1.231,0.473 c0.047,0.041,0.106,0.063,0.165,0.063c0.032,0,0.063-0.006,0.093-0.019c0.088-0.035,0.148-0.117,0.155-0.212 c0.102-1.292,1.191-2.305,2.479-2.305c0.208,0,0.425,0.034,0.682,0.107c0.023,0.007,0.047,0.01,0.07,0.01 c0.109,0,0.207-0.073,0.239-0.182c0.038-0.133-0.039-0.271-0.172-0.309C29.517,48.04,29.257,48,29.001,48L29.001,48z"/><path fill="#472b29" d="M42.884,49.5c-1.326,0-2.508,0.897-2.874,2.182c-0.038,0.133,0.039,0.271,0.172,0.309 c0.023,0.007,0.046,0.01,0.068,0.01c0.109,0,0.209-0.072,0.24-0.182C40.796,50.748,41.78,50,42.884,50 c0.117,0,0.23,0.014,0.342,0.029c0.012,0.002,0.023,0.003,0.035,0.003c0.121,0,0.229-0.092,0.246-0.217 c0.019-0.137-0.077-0.263-0.214-0.281C43.158,49.516,43.023,49.5,42.884,49.5L42.884,49.5z"/><path fill="#1e65d6" d="M59.249,29.733H47.855c-2.102,0-4.103,0.417-5.941,1.155c-0.002,0.002-0.004,0.005-0.007,0.007 c-5.862,2.358-10.005,8.085-10.005,14.791V57.08c0,8.81,7.142,15.953,15.953,15.953h11.395c5.368,0,10.098-2.663,12.988-6.729 c0.007-0.004,0.015-0.008,0.022-0.012c1.847-2.604,2.943-5.777,2.943-9.212V45.685C75.202,36.875,68.06,29.733,59.249,29.733z"/><path fill="#ededeb" d="M59.027,30.159L45.5,30.25c-1.115,0.094-2.109,0.638-2.769,1.27 c-3.627,3.521-6.296,9.264-6.296,14.13c0,7.368,1.018,11.681,4.039,15.894c0.235,0.328,0.388,0.711,0.409,1.112 c0.047,0.909-0.14,2.573-1.778,4.072c-0.176,0.161-0.064,0.456,0.174,0.466c1.025,0.045,3.093-0.015,5.22-0.954 c0.606-0.268,1.296-0.221,1.881,0.09c3.605,1.914,7.827,2.171,11.817,2.171c5.088,0,10.558-1.063,14.166-3.424 c1.764-2.486,2.462-5.253,2.462-8.532V45.684C74.825,37.271,68,30.159,59.027,30.159z"/><path fill="#1e65d6" d="M67.622,54.693c-2.281,0-4.138-1.857-4.138-4.138c0-2.281,1.857-4.138,4.138-4.138 c2.281,0,4.138,1.857,4.138,4.138C71.76,52.836,69.902,54.693,67.622,54.693z M67.622,48.072c-1.368,0-2.483,1.115-2.483,2.483 c0,1.368,1.115,2.483,2.483,2.483s2.483-1.115,2.483-2.483C70.104,49.187,68.99,48.072,67.622,48.072z"/><path fill="#1e65d6" d="M61.828,54.693h-1.103c-0.305,0-0.552-0.247-0.552-0.552v-9.38h1.655V54.693z"/><path fill="#1e65d6" d="M56.862,46.693v0.573c-0.694-0.525-1.548-0.849-2.483-0.849c-2.281,0-4.138,1.857-4.138,4.138 c0,2.281,1.857,4.138,4.138,4.138c0.935,0,1.789-0.323,2.483-0.849v0.297c0,0.305,0.247,0.552,0.552,0.552h1.103v-8H56.862z M54.38,53.038c-1.368,0-2.483-1.115-2.483-2.483c0-1.368,1.115-2.483,2.483-2.483c1.368,0,2.483,1.115,2.483,2.483 C56.862,51.924,55.748,53.038,54.38,53.038z"/><path fill="#1e65d6" d="M50.517,44.762h-8.828v1.655h5.872l-6.119,7.173l0,0c-0.18,0.233-0.305,0.511-0.305,0.828v0.276 h8.276c0.305,0,0.552-0.247,0.552-0.552v-1.103h-5.872l6.119-7.173l0,0c0.18-0.233,0.305-0.511,0.305-0.828V44.762z"/><g><path fill="#472b29" d="M67.621,54.943c-2.419,0-4.388-1.969-4.388-4.388c0-2.42,1.969-4.389,4.388-4.389 c2.42,0,4.389,1.969,4.389,4.389C72.01,52.975,70.041,54.943,67.621,54.943z M67.621,46.667c-2.144,0-3.888,1.744-3.888,3.889 c0,2.144,1.744,3.888,3.888,3.888c2.145,0,3.889-1.744,3.889-3.888C71.51,48.411,69.766,46.667,67.621,46.667z M67.621,53.288 c-1.507,0-2.732-1.226-2.732-2.732s1.226-2.733,2.732-2.733s2.733,1.227,2.733,2.733S69.128,53.288,67.621,53.288z M67.621,48.322 c-1.231,0-2.232,1.002-2.232,2.233s1.001,2.232,2.232,2.232s2.233-1.001,2.233-2.232S68.853,48.322,67.621,48.322z"/><path fill="#472b29" d="M61.828,54.943h-1.104c-0.442,0-0.802-0.359-0.802-0.802v-9.38c0-0.138,0.112-0.25,0.25-0.25h1.655 c0.138,0,0.25,0.112,0.25,0.25v9.932C62.078,54.831,61.966,54.943,61.828,54.943z M60.423,45.012v9.13 c0,0.166,0.136,0.302,0.302,0.302h0.854v-9.432H60.423z"/><path fill="#472b29" d="M58.518,54.943h-1.104c-0.386,0-0.709-0.274-0.785-0.638c-0.687,0.419-1.455,0.638-2.249,0.638 c-2.42,0-4.389-1.969-4.389-4.388c0-2.42,1.969-4.389,4.389-4.389c0.787,0,1.55,0.216,2.232,0.628v-0.102 c0-0.138,0.112-0.25,0.25-0.25h1.655c0.138,0,0.25,0.112,0.25,0.25v8C58.768,54.831,58.655,54.943,58.518,54.943z M56.862,53.595 c0.038,0,0.076,0.009,0.111,0.026c0.085,0.042,0.139,0.129,0.139,0.224v0.297c0,0.166,0.136,0.302,0.302,0.302h0.854v-7.5h-1.155 v0.322c0,0.095-0.054,0.182-0.139,0.224c-0.084,0.043-0.187,0.033-0.262-0.024c-0.69-0.521-1.497-0.798-2.332-0.798 c-2.145,0-3.889,1.744-3.889,3.889c0,2.144,1.744,3.888,3.889,3.888c0.835,0,1.642-0.276,2.332-0.798 C56.756,53.612,56.809,53.595,56.862,53.595z M54.38,53.288c-1.507,0-2.733-1.226-2.733-2.732s1.227-2.733,2.733-2.733 s2.732,1.227,2.732,2.733S55.887,53.288,54.38,53.288z M54.38,48.322c-1.231,0-2.233,1.002-2.233,2.233s1.002,2.232,2.233,2.232 s2.232-1.001,2.232-2.232S55.611,48.322,54.38,48.322z"/><path fill="#472b29" d="M49.414,54.943h-8.276c-0.138,0-0.25-0.112-0.25-0.25v-0.276c0-0.344,0.12-0.674,0.356-0.98 l5.775-6.77h-5.33c-0.138,0-0.25-0.112-0.25-0.25v-1.655c0-0.138,0.112-0.25,0.25-0.25h8.828c0.138,0,0.25,0.112,0.25,0.25v0.276 c0,0.344-0.12,0.674-0.356,0.98l-5.775,6.77h5.33c0.138,0,0.25,0.112,0.25,0.25v1.104C50.216,54.584,49.856,54.943,49.414,54.943z M41.388,54.443h8.026c0.166,0,0.302-0.136,0.302-0.302v-0.854h-5.622c-0.098,0-0.187-0.057-0.227-0.146 c-0.041-0.088-0.027-0.192,0.036-0.267l6.119-7.173c0.16-0.207,0.245-0.435,0.245-0.665v-0.026h-8.328v1.155h5.622 c0.098,0,0.187,0.057,0.227,0.146c0.041,0.088,0.027,0.192-0.036,0.267l-6.119,7.173c-0.16,0.207-0.245,0.435-0.245,0.665V54.443z"/><path fill="#472b29" d="M59.069,30.416c8.532,0,15.449,6.917,15.449,15.449V56.9c0,3.326-1.062,6.399-2.85,8.921 c-0.007,0.004-0.014,0.007-0.021,0.011c-2.798,3.938-7.379,6.517-12.578,6.517H48.035c-8.532,0-15.449-6.917-15.449-15.449V45.865 c0-6.494,4.012-12.04,9.689-14.323c0.002-0.002,0.004-0.004,0.006-0.006c1.78-0.715,3.718-1.119,5.754-1.119H59.069 M59.069,29.016H48.035c-2.149,0-4.261,0.41-6.276,1.22l-0.253,0.102l-0.012,0.011c-6.272,2.641-10.309,8.701-10.309,15.516V56.9 c0,9.291,7.558,16.849,16.849,16.849h11.035c5.328,0,10.367-2.56,13.542-6.861l0.029-0.017l0.17-0.24 c2.034-2.867,3.108-6.231,3.108-9.731V45.865C75.918,36.575,68.36,29.016,59.069,29.016L59.069,29.016z"/><path fill="#472b29" d="M58.177,69c-4.078,0-8.36-0.27-12.05-2.229c-0.464-0.247-0.992-0.274-1.444-0.075 c-2.214,0.978-4.359,1.04-5.442,0.997c-0.312-0.014-0.583-0.212-0.691-0.507c-0.106-0.293-0.028-0.617,0.201-0.827 c1.5-1.373,1.656-2.893,1.616-3.677c-0.015-0.286-0.124-0.579-0.316-0.846c-3.012-4.203-4.132-8.589-4.132-16.184 c0-4.845,2.651-10.802,6.446-14.486c0.423-0.432,1.189-1.037,1.813-1.431l0.533,0.846c-0.558,0.352-1.263,0.907-1.641,1.293 c-3.626,3.521-6.152,9.183-6.152,13.778c0,7.455,1.032,11.537,3.944,15.601c0.304,0.422,0.478,0.899,0.502,1.378 c0.046,0.884-0.108,2.529-1.543,4.072c1.08-0.007,2.749-0.168,4.457-0.922c0.738-0.327,1.581-0.285,2.318,0.106 C50.092,67.744,54.229,68,58.177,68c5.111,0,10.064-1.159,13.249-3.1c0.529-0.278,1.168-0.753,1.175-0.758l0.598,0.801 c-0.028,0.021-0.708,0.527-1.281,0.827C68.611,67.786,63.464,69,58.177,69z M39.282,66.693L39.282,66.693L39.282,66.693z"/></g><g><path fill="#fff" d="M73.405,23H63.5c-0.276,0-0.5-0.224-0.5-0.5s0.224-0.5,0.5-0.5h9.905c0.276,0,0.5,0.224,0.5,0.5 S73.682,23,73.405,23z"/><path fill="#fff" d="M76.5,23h-1c-0.276,0-0.5-0.224-0.5-0.5s0.224-0.5,0.5-0.5h1c0.276,0,0.5,0.224,0.5,0.5 S76.777,23,76.5,23z"/><path fill="#fff" d="M81.491,25H72.5c-0.276,0-0.5-0.224-0.5-0.5s0.224-0.5,0.5-0.5h8.991c0.276,0,0.5,0.224,0.5,0.5 S81.767,25,81.491,25z"/><path fill="#fff" d="M70.5,25h-1c-0.276,0-0.5-0.224-0.5-0.5s0.224-0.5,0.5-0.5h1c0.276,0,0.5,0.224,0.5,0.5 S70.777,25,70.5,25z"/><path fill="#fff" d="M67.5,25h-2c-0.276,0-0.5-0.224-0.5-0.5s0.224-0.5,0.5-0.5h2c0.276,0,0.5,0.224,0.5,0.5 S67.777,25,67.5,25z"/><path fill="#fff" d="M73.5,27h-2c-0.276,0-0.5-0.224-0.5-0.5s0.224-0.5,0.5-0.5h2c0.276,0,0.5,0.224,0.5,0.5 S73.776,27,73.5,27z"/><path fill="#fff" d="M76.5,18c-0.177,0-0.823,0-1,0c-0.276,0-0.5,0.224-0.5,0.5s0.224,0.5,0.5,0.5c0.177,0,0.823,0,1,0 c0.276,0,0.5-0.224,0.5-0.5S76.776,18,76.5,18z"/><path fill="#fff" d="M76.5,20c-0.177,0-4.823,0-5,0c-0.276,0-0.5,0.224-0.5,0.5s0.224,0.5,0.5,0.5c0.177,0,4.823,0,5,0 c0.276,0,0.5-0.224,0.5-0.5S76.776,20,76.5,20z"/><path fill="#fff" d="M81.5,22c-0.177,0-2.823,0-3,0c-0.276,0-0.5,0.224-0.5,0.5s0.224,0.5,0.5,0.5c0.177,0,2.823,0,3,0 c0.276,0,0.5-0.224,0.5-0.5S81.776,22,81.5,22z"/></g><g><path fill="#fff" d="M32,80H22c-0.276,0-0.5-0.224-0.5-0.5S21.724,79,22,79h10c0.276,0,0.5,0.224,0.5,0.5 S32.276,80,32,80z"/><path fill="#fff" d="M36,80h-2c-0.276,0-0.5-0.224-0.5-0.5S33.724,79,34,79h2c0.276,0,0.5,0.224,0.5,0.5S36.276,80,36,80 z"/><path fill="#fff" d="M41,82H31c-0.276,0-0.5-0.224-0.5-0.5S30.724,81,31,81h10c0.276,0,0.5,0.224,0.5,0.5 S41.277,82,41,82z"/><path fill="#fff" d="M29,82h-1c-0.276,0-0.5-0.224-0.5-0.5S27.724,81,28,81h1c0.276,0,0.5,0.224,0.5,0.5S29.276,82,29,82 z"/><path fill="#fff" d="M25.875,82H24c-0.276,0-0.5-0.224-0.5-0.5S23.724,81,24,81h1.875c0.276,0,0.5,0.224,0.5,0.5 S26.151,82,25.875,82z"/><path fill="#fff" d="M35,78h-5c-0.276,0-0.5-0.224-0.5-0.5S29.724,77,30,77h5c0.276,0,0.5,0.224,0.5,0.5S35.277,78,35,78 z"/><path fill="#fff" d="M32,84h-2c-0.276,0-0.5-0.224-0.5-0.5S29.724,83,30,83h2c0.276,0,0.5,0.224,0.5,0.5S32.276,84,32,84 z"/></g><g><path fill="#fdfcef" d="M79.5,75.5c0,0,1.567,0,3.5,0s3.5-1.567,3.5-3.5c0-1.781-1.335-3.234-3.055-3.455 C83.473,68.366,83.5,68.187,83.5,68c0-1.933-1.567-3.5-3.5-3.5c-1.032,0-1.95,0.455-2.59,1.165 c-0.384-1.808-1.987-3.165-3.91-3.165c-2.209,0-4,1.791-4,4c0,0.191,0.03,0.374,0.056,0.558C69.128,66.714,68.592,66.5,68,66.5 c-1.228,0-2.245,0.887-2.455,2.055C65.366,68.527,65.187,68.5,65,68.5c-1.933,0-3.5,1.567-3.5,3.5s1.567,3.5,3.5,3.5s7.5,0,7.5,0 V76h7V75.5z"/><path fill="#472b29" d="M81.25,71C81.112,71,81,70.888,81,70.75c0-1.223,0.995-2.218,2.218-2.218 c0.034,0.009,0.737-0.001,1.244,0.136c0.133,0.036,0.212,0.173,0.176,0.306c-0.036,0.134-0.173,0.213-0.306,0.176 c-0.444-0.12-1.1-0.12-1.113-0.118c-0.948,0-1.719,0.771-1.719,1.718C81.5,70.888,81.388,71,81.25,71z"/><circle cx="74.5" cy="75.5" r=".5" fill="#472b29"/><path fill="#472b29" d="M83,76h-3.5c-0.276,0-0.5-0.224-0.5-0.5s0.224-0.5,0.5-0.5H83c1.654,0,3-1.346,3-3 c0-1.496-1.125-2.768-2.618-2.959c-0.134-0.018-0.255-0.088-0.336-0.196s-0.115-0.244-0.094-0.377C82.975,68.314,83,68.16,83,68 c0-1.654-1.346-3-3-3c-0.85,0-1.638,0.355-2.219,1c-0.125,0.139-0.321,0.198-0.5,0.148c-0.182-0.049-0.321-0.195-0.36-0.379 C76.58,64.165,75.142,63,73.501,63c-1.93,0-3.5,1.57-3.5,3.5c0,0.143,0.021,0.28,0.041,0.418c0.029,0.203-0.063,0.438-0.242,0.54 c-0.179,0.102-0.396,0.118-0.556-0.01C68.878,67.155,68.449,67,68,67c-0.966,0-1.792,0.691-1.963,1.644 c-0.048,0.267-0.296,0.446-0.569,0.405C65.314,69.025,65.16,69,65,69c-1.654,0-3,1.346-3,3s1.346,3,3,3h7.5 c0.276,0,0.5,0.224,0.5,0.5S72.776,76,72.5,76H65c-2.206,0-4-1.794-4-4s1.794-4,4-4c0.059,0,0.116,0.002,0.174,0.006 C65.588,66.82,66.711,66,68,66c0.349,0,0.689,0.061,1.011,0.18C69.176,63.847,71.126,62,73.5,62c1.831,0,3.466,1.127,4.153,2.774 C78.333,64.275,79.155,64,80,64c2.206,0,4,1.794,4,4c0,0.048-0.001,0.095-0.004,0.142C85.739,68.59,87,70.169,87,72 C87,74.206,85.206,76,83,76z"/><path fill="#472b29" d="M77.5,75c-0.159,0-0.841,0-1,0c-0.276,0-0.5,0.224-0.5,0.5s0.224,0.5,0.5,0.5c0.159,0,0.841,0,1,0 c0.276,0,0.5-0.224,0.5-0.5S77.776,75,77.5,75z"/></g></svg>